<svg width="64" height="64" viewBox="0 0 64 64" fill="none" xmlns="http://www.w3.org/2000/svg">
<rect width="64" height="64" rx="32" fill="white" style="fill:white;fill-opacity:1;"/>
<rect x="1.5" y="1.5" width="61" height="61" rx="30.5" stroke="#0B5442" stroke-opacity="0.12" style="stroke:#0B5442;stroke:color(display-p3 0.0435 0.3286 0.2587);stroke-opacity:0.12;" stroke-width="3"/>
<path d="M39.4467 43H24.5533C23.6 43 22.7067 42.6267 22.04 41.96C21.3667 41.2867 21 40.4 21 39.4467V24.5533C21 23.6 21.3733 22.7067 22.04 22.04C22.7133 21.3667 23.6 21 24.5533 21H39.4467C40.4 21 41.2933 21.3733 41.96 22.04C42.6333 22.7133 43 23.6 43 24.5533V39.4467C43 40.4 42.6267 41.2933 41.96 41.96C41.2867 42.6333 40.4 43 39.4467 43Z" fill="#0E6953" style="fill:#0E6953;fill:color(display-p3 0.0549 0.4118 0.3255);fill-opacity:1;"/>
<path d="M37.8424 34H26.1576C25.5845 34 25.0383 33.7724 24.6338 33.3517C24.2292 32.9379 24 32.3724 24 31.7931V26.2069C24 25.6276 24.2292 25.0552 24.6338 24.6483C25.0383 24.2345 25.5845 24 26.1576 24H37.8424C38.4088 24 38.9684 24.2345 39.3662 24.6483C39.764 25.0621 40 25.6276 40 26.2069V31.7931C40 32.3724 39.7708 32.9448 39.3662 33.3517C38.9617 33.7586 38.4088 34 37.8424 34Z" fill="white" style="fill:white;fill-opacity:1;"/>
<path d="M39.2865 36.9267H24.7133C24.32 36.9267 24 36.6067 24 36.2133C24 35.82 24.32 35.5 24.7133 35.5H39.2865C39.6798 35.5 39.9998 35.82 39.9998 36.2133C39.9998 36.6067 39.6798 36.9267 39.2865 36.9267Z" fill="white" style="fill:white;fill-opacity:1;"/>
<path d="M29.6933 39.9267H24.7133C24.32 39.9267 24 39.6067 24 39.2133C24 38.82 24.32 38.5 24.7133 38.5H29.6933C30.0867 38.5 30.4067 38.82 30.4067 39.2133C30.4067 39.6067 30.0867 39.9267 29.6933 39.9267Z" fill="white" style="fill:white;fill-opacity:1;"/>
</svg>
