<svg width="64" height="64" viewBox="0 0 64 64" fill="none" xmlns="http://www.w3.org/2000/svg">
<rect width="64" height="64" rx="32" fill="white" style="fill:white;fill-opacity:1;"/>
<rect x="1.5" y="1.5" width="61" height="61" rx="30.5" stroke="#0B5442" stroke-opacity="0.12" style="stroke:#0B5442;stroke:color(display-p3 0.0435 0.3286 0.2587);stroke-opacity:0.12;" stroke-width="3"/>
<path d="M32 21.75C33.5773 21.7491 35.1338 22.1126 36.5479 22.8115C37.9619 23.5104 39.1961 24.5257 40.1533 25.7793C41.1105 27.0329 41.7656 28.4909 42.0674 30.0391C42.3691 31.5871 42.3088 33.1838 41.8926 34.7051C41.4763 36.2264 40.715 37.6317 39.667 38.8105C38.619 39.9894 37.3128 40.9104 35.8506 41.502C34.3884 42.0935 32.8092 42.3392 31.2363 42.2207C29.6635 42.1022 28.1393 41.6223 26.7822 40.8184L26.4766 40.6377L26.1436 40.7588L22.0879 42.2344C22.0594 42.2446 22.0293 42.2488 21.999 42.249C21.9593 42.2488 21.92 42.24 21.8848 42.2217C21.8493 42.2031 21.8189 42.1763 21.7959 42.1436C21.7729 42.1106 21.7582 42.0721 21.7529 42.0322C21.7478 41.9925 21.7519 41.9517 21.7656 41.9141L23.2412 37.8564L23.3623 37.5225L23.1816 37.2178C22.2597 35.6619 21.7652 33.8895 21.75 32.0811C21.7348 30.2726 22.199 28.4921 23.0947 26.9209C23.9905 25.3497 25.2866 24.0439 26.8506 23.1357C28.3169 22.2843 29.9699 21.811 31.6611 21.7559L32 21.75Z" fill="#0E6953" stroke="#0E6953" style="fill:#0E6953;fill:color(display-p3 0.0549 0.4118 0.3255);fill-opacity:1;stroke:#0E6953;stroke:color(display-p3 0.0549 0.4118 0.3255);stroke-opacity:1;" stroke-width="1.5"/>
</svg>
