<svg width="64" height="64" viewBox="0 0 64 64" fill="none" xmlns="http://www.w3.org/2000/svg">
<rect width="64" height="64" rx="32" fill="white"/>
<rect x="1.5" y="1.5" width="61" height="61" rx="30.5" stroke="#0B5442" stroke-opacity="0.12" stroke-width="3"/>
<path d="M40.821 34.9734C39.8498 36.151 35.5778 39.6751 33.3559 41.4802C32.5651 42.1248 31.4348 42.1248 30.6441 41.4802C28.4221 39.6751 24.1545 36.151 23.1789 34.9734C21.6919 33.1813 21 31.4751 21 29.6185C21 27.8048 21.6189 26.1373 22.7449 24.9168C23.8881 23.6833 25.4481 23 27.1457 23C28.4178 23 29.5782 23.404 30.6011 24.1948C31.134 24.6116 31.6067 25.1016 31.9978 25.656C32.3932 25.1059 32.8617 24.6116 33.3946 24.1948C34.4175 23.3997 35.5821 23 36.8543 23C38.5561 23 40.1162 23.6833 41.2551 24.9168C42.3768 26.1373 43 27.8005 43 29.6185C43.0043 31.4751 42.3123 33.1813 40.821 34.9734Z" fill="#0E6953"/>
</svg>
