<svg width="64" height="64" viewBox="0 0 64 64" fill="none" xmlns="http://www.w3.org/2000/svg">
<rect x="1.5" y="1.5" width="61" height="61" rx="30.5" fill="#0E6953" stroke="url(#paint0_linear_1_263)" style="fill:#0E6953;fill:color(display-p3 0.0549 0.4118 0.3255);fill-opacity:1;" stroke-width="3"/>
<g clip-path="url(#clip0_1_263)">
<path d="M32.4237 18.0938C32.1872 18.3311 31.785 18.3312 31.5485 18.094C30.9546 17.4983 30.1199 17.0094 28.9761 17C28.9667 17 28.9564 17 28.9469 17C26.8716 17 25.1163 18.7844 25.0271 20.992C24.9207 23.5987 26.8767 25.3087 29.837 27.808C30.6563 28.4993 31.0485 28.8354 31.3367 29.0848C31.7105 29.4082 32.2619 29.4084 32.6357 29.0849C32.9007 28.8556 33.2729 28.5367 34.1329 27.8098C37.0949 25.3095 39.0519 23.5996 38.9463 20.9929C38.8569 18.7844 37.1017 17 35.0263 17C35.0169 17 35.0065 17 34.9962 17C33.852 17.0094 33.0171 17.4981 32.4237 18.0938Z" fill="#F7D44C" style="fill:#F7D44C;fill:color(display-p3 0.9686 0.8314 0.2980);fill-opacity:1;"/>
<path d="M17.7559 35.1992L24.6348 42.2479C24.8633 42.6348 24.9688 43.0742 24.9688 43.5137V43.9238C24.9688 45.6228 26.346 47 28.0449 47C29.7438 47 31.1211 45.6228 31.1211 43.9238V36.095C31.1211 35.036 30.7011 34.0202 29.9533 33.2703L25.3379 28.6425C24.6523 27.957 23.5273 27.957 22.8417 28.6425C22.1647 29.3195 22.1833 30.4451 22.7715 31.0332C22.785 31.0602 25.4852 33.7636 26.7283 35.0074C27.0687 35.348 27.069 35.8978 26.7309 36.2407C26.3894 36.587 25.8312 36.589 25.4873 36.2451L21.3477 32.1055C20.8554 31.6132 20.5742 30.9453 20.5742 30.2422V24.0898C20.5742 23.119 19.7872 22.332 18.8164 22.332C17.8456 22.332 17 23.119 17 24.0898V32.791C17 34.2929 17.6737 35.0233 17.7559 35.1992Z" fill="white" style="fill:white;fill-opacity:1;"/>
<path d="M45.1836 22.332C44.2128 22.332 43.4258 23.119 43.4258 24.0898V30.2422C43.4258 30.9453 43.1446 31.6132 42.6523 32.1055L38.5126 36.2451C38.1687 36.589 37.6105 36.587 37.2691 36.2406C36.931 35.8978 36.9313 35.348 37.2717 35.0075C38.5147 33.7637 41.215 31.0602 41.2285 31.0332C41.8167 30.445 41.8353 29.3195 41.1583 28.6425C40.4727 27.957 39.3477 27.957 38.6621 28.6425L34.0467 33.2703C33.2989 34.0202 32.8789 35.036 32.8789 36.095V43.9238C32.8789 45.6227 34.2562 47 35.9551 47C37.654 47 39.0312 45.6228 39.0312 43.9238V43.5137C39.0312 43.0742 39.1367 42.6348 39.3652 42.248L46.2441 35.1992C46.3263 35.0234 47 34.2892 47 32.791V24.0898C47 23.119 46.1544 22.332 45.1836 22.332Z" fill="white" style="fill:white;fill-opacity:1;"/>
</g>
<defs>
<linearGradient id="paint0_linear_1_263" x1="32" y1="14.1176" x2="32" y2="64" gradientUnits="userSpaceOnUse">
<stop stop-color="#1D8269" style="stop-color:#1D8269;stop-color:color(display-p3 0.1140 0.5081 0.4128);stop-opacity:1;"/>
<stop offset="1" stop-color="#034C3A" style="stop-color:#034C3A;stop-color:color(display-p3 0.0107 0.2962 0.2272);stop-opacity:1;"/>
</linearGradient>
<clipPath id="clip0_1_263">
<rect width="30" height="30" fill="white" style="fill:white;fill-opacity:1;" transform="translate(17 17)"/>
</clipPath>
</defs>
</svg>
