<svg width="19" height="16" viewBox="0 0 19 16" fill="none" xmlns="http://www.w3.org/2000/svg">
<path d="M16.7234 10.1022C15.9039 11.0958 12.2996 14.0691 10.4249 15.5921C9.75773 16.136 8.80408 16.136 8.13688 15.5921C6.26221 14.0691 2.66153 11.0958 1.83841 10.1022C0.583796 8.59014 0 7.1506 0 5.58414C0 4.05394 0.522153 2.64703 1.47218 1.61722C2.43671 0.576544 3.75297 0 5.18527 0C6.25858 0 7.23762 0.34085 8.10062 1.00805C8.55025 1.35977 8.94912 1.77314 9.27909 2.24091C9.61269 1.77677 10.0079 1.35977 10.4576 1.00805C11.3206 0.337224 12.3032 0 13.3765 0C14.8125 0 16.1287 0.576544 17.0896 1.61722C18.036 2.64703 18.5618 4.05031 18.5618 5.58414C18.5654 7.1506 17.9816 8.59014 16.7234 10.1022Z" fill="#E91717" style="fill:#E91717;fill:color(display-p3 0.9149 0.0915 0.0915);fill-opacity:1;"/>
</svg>
