<svg width="64" height="64" viewBox="0 0 64 64" fill="none" xmlns="http://www.w3.org/2000/svg">
<rect width="64" height="64" rx="32" fill="white" style="fill:white;fill-opacity:1;"/>
<rect x="1.5" y="1.5" width="61" height="61" rx="30.5" stroke="#0B5442" stroke-opacity="0.12" style="stroke:#0B5442;stroke:color(display-p3 0.0435 0.3286 0.2587);stroke-opacity:0.12;" stroke-width="3"/>
<path d="M32.0317 32.9802C33.3852 32.9802 34.6362 32.5987 35.637 31.9507C36.4122 31.4544 37.4211 31.5364 38.102 32.1557C39.9928 33.8702 41.0674 36.3024 41.0633 38.8577V39.9528C41.0633 41.0848 40.1446 41.9995 39.0125 41.9995H25.0508C23.9188 41.9995 23 41.0848 23 39.9528V38.8577C22.9918 36.3065 24.0665 33.8702 25.9573 32.1598C26.6381 31.5405 27.6512 31.4585 28.4223 31.9548C29.4272 32.5987 30.6741 32.9802 32.0317 32.9802Z" fill="#0E6953" style="fill:#0E6953;fill:color(display-p3 0.0549 0.4118 0.3255);fill-opacity:1;"/>
<path d="M32.0318 31.1555C34.8362 31.1555 37.1096 28.8821 37.1096 26.0777C37.1096 23.2734 34.8362 21 32.0318 21C29.2275 21 26.9541 23.2734 26.9541 26.0777C26.9541 28.8821 29.2275 31.1555 32.0318 31.1555Z" fill="#0E6953" style="fill:#0E6953;fill:color(display-p3 0.0549 0.4118 0.3255);fill-opacity:1;"/>
</svg>
