<svg width="64" height="64" viewBox="0 0 64 64" fill="none" xmlns="http://www.w3.org/2000/svg">
<rect width="64" height="64" rx="32" fill="white" style="fill:white;fill-opacity:1;"/>
<rect x="1.5" y="1.5" width="61" height="61" rx="30.5" stroke="#0B5442" stroke-opacity="0.12" style="stroke:#0B5442;stroke:color(display-p3 0.0435 0.3286 0.2587);stroke-opacity:0.12;" stroke-width="3"/>
<path d="M29.4791 21H22.6041C21.7196 21 21 21.7196 21 22.6041V26.7291C21 27.6138 21.7196 28.3334 22.6041 28.3334H29.4791C30.3638 28.3334 31.0834 27.6138 31.0834 26.7291V22.6041C31.0834 21.7196 30.3638 21 29.4791 21Z" fill="#0E6953" style="fill:#0E6953;fill:color(display-p3 0.0549 0.4118 0.3255);fill-opacity:1;"/>
<path d="M29.4791 30.1665H22.6041C21.7196 30.1665 21 30.8861 21 31.7708V41.3958C21 42.2803 21.7196 42.9999 22.6041 42.9999H29.4791C30.3638 42.9999 31.0834 42.2803 31.0834 41.3958V31.7708C31.0834 30.8861 30.3638 30.1665 29.4791 30.1665Z" fill="#0E6953" style="fill:#0E6953;fill:color(display-p3 0.0549 0.4118 0.3255);fill-opacity:1;"/>
<path d="M41.3963 35.6665H34.5213C33.6366 35.6665 32.917 36.3861 32.917 37.2708V41.3958C32.917 42.2803 33.6366 42.9999 34.5213 42.9999H41.3963C42.2808 42.9999 43.0004 42.2803 43.0004 41.3958V37.2708C43.0004 36.3861 42.2808 35.6665 41.3963 35.6665Z" fill="#0E6953" style="fill:#0E6953;fill:color(display-p3 0.0549 0.4118 0.3255);fill-opacity:1;"/>
<path d="M41.3963 21H34.5213C33.6366 21 32.917 21.7196 32.917 22.6041V32.2291C32.917 33.1138 33.6366 33.8334 34.5213 33.8334H41.3963C42.2808 33.8334 43.0004 33.1138 43.0004 32.2291V22.6041C43.0004 21.7196 42.2808 21 41.3963 21Z" fill="#0E6953" style="fill:#0E6953;fill:color(display-p3 0.0549 0.4118 0.3255);fill-opacity:1;"/>
</svg>
