<svg width="30" height="30" viewBox="0 0 30 30" fill="none" xmlns="http://www.w3.org/2000/svg">
<g clip-path="url(#clip0_1_1248)">
<path d="M29.0019 6.87304C28.403 6.24567 27.576 5.87494 26.635 5.87494H21.9011V5.81791C21.9011 5.10498 21.616 4.42057 21.1312 3.9643C20.6464 3.47951 19.9905 3.19434 19.2776 3.19434H10.7224C9.98099 3.19434 9.3251 3.47951 8.8403 3.9643C8.35551 4.44909 8.07034 5.10498 8.07034 5.81791V5.87494H3.36502C2.42395 5.87494 1.59696 6.24567 0.998099 6.87304C0.39924 7.4719 0 8.32742 0 9.23996V23.4415C0 24.3826 0.370722 25.2095 0.998099 25.8084C1.59696 26.4073 2.45247 26.8065 3.36502 26.8065H26.635C27.576 26.8065 28.403 26.4358 29.0019 25.8084C29.6008 25.2095 30 24.354 30 23.4415V9.23996C30 8.2989 29.6293 7.4719 29.0019 6.87304ZM28.5171 23.4415H28.4886C28.4886 23.9548 28.289 24.4111 27.9468 24.7533C27.6046 25.0955 27.1483 25.2951 26.635 25.2951H3.36502C2.85171 25.2951 2.39544 25.0955 2.05323 24.7533C1.71103 24.4111 1.51141 23.9548 1.51141 23.4415V9.23996C1.51141 8.72666 1.71103 8.27038 2.05323 7.92818C2.39544 7.58597 2.85171 7.38635 3.36502 7.38635H8.86882C9.29658 7.38635 9.63878 7.04415 9.63878 6.61639V5.78939C9.63878 5.4757 9.75285 5.19053 9.95247 4.99091C10.1521 4.79129 10.4373 4.67723 10.751 4.67723H19.2776C19.5913 4.67723 19.8764 4.79129 20.076 4.99091C20.2757 5.19053 20.3897 5.4757 20.3897 5.78939V6.61639C20.3897 7.04415 20.7319 7.38635 21.1597 7.38635H26.6635C27.1768 7.38635 27.6331 7.58597 27.9753 7.92818C28.3175 8.27038 28.5171 8.72666 28.5171 9.23996V23.4415Z" fill="currentColor"/>
<path d="M14.9996 9.3252C13.0604 9.3252 11.2924 10.1237 10.0376 11.3784C8.75434 12.6617 7.98438 14.4012 7.98438 16.3404C7.98438 18.2796 8.78285 20.0476 10.0376 21.3024C11.3209 22.5857 13.0604 23.3556 14.9996 23.3556C16.9387 23.3556 18.7068 22.5571 19.9616 21.3024C21.2448 20.0191 22.0148 18.2796 22.0148 16.3404C22.0148 14.4012 21.2163 12.6332 19.9616 11.3784C18.7068 10.1237 16.9387 9.3252 14.9996 9.3252ZM18.8779 20.2472C17.8798 21.2168 16.511 21.8442 14.9996 21.8442C13.4882 21.8442 12.1194 21.2168 11.1213 20.2472C10.1232 19.2492 9.5243 17.8803 9.5243 16.3689C9.5243 14.8575 10.1517 13.4887 11.1213 12.4906C12.1194 11.4925 13.4882 10.8936 14.9996 10.8936C16.511 10.8936 17.8798 11.521 18.8779 12.4906C19.876 13.4887 20.4749 14.8575 20.4749 16.3689C20.5034 17.8803 19.876 19.2492 18.8779 20.2472Z" fill="currentColor"/>
<path d="M25.1522 12.0916C25.9239 12.0916 26.5496 11.4659 26.5496 10.6942C26.5496 9.92249 25.9239 9.29688 25.1522 9.29688C24.3805 9.29688 23.7549 9.92249 23.7549 10.6942C23.7549 11.4659 24.3805 12.0916 25.1522 12.0916Z" fill="currentColor"/>
</g>
<defs>
<clipPath id="clip0_1_1248">
<rect width="30" height="30" fill="white"/>
</clipPath>
</defs>
</svg>
