<svg width="93" height="95" viewBox="0 0 93 95" fill="none" xmlns="http://www.w3.org/2000/svg">
<g clip-path="url(#clip0_1_2396)">
<path d="M40.9269 71.2056L40.4349 82.0554H20.5612C20.7898 76.7237 18.8433 71.5274 15.1675 67.6583C9.42487 61.6897 4.91302 55.6813 2.49423 49.5696C2.06586 48.4727 1.85692 47.3022 1.8796 46.1247V27.7623C1.89813 26.0939 3.07302 24.6623 4.70578 24.3187C6.49361 24.0703 8.15465 25.2888 8.45453 27.0686L11.0586 44.0916C12.8562 48.8358 16.1483 52.8666 20.4383 55.5753C21.5461 56.3342 22.7766 57.1751 24.1912 56.273C24.8972 55.3539 24.8097 54.0532 23.9869 53.2369L18.1831 48.6432C16.328 47.4451 15.4907 45.1629 16.1307 43.0493C16.4082 41.9015 17.5636 41.1959 18.7114 41.4734C18.9791 41.5382 19.2319 41.654 19.4557 41.8147L31.145 50.1626C33.2073 51.3087 34.9764 52.9163 36.3136 54.8599C39.6525 59.6317 41.2782 65.3926 40.9269 71.2056Z" fill="#FFC278" style="fill:#FFC278;fill:color(display-p3 1.0000 0.7623 0.4717);fill-opacity:1;"/>
<path d="M18.8572 81.4565H41.0517C41.8375 81.4565 42.4743 82.0936 42.4743 82.8791V91.5269C42.4743 92.3127 41.8373 92.9495 41.0517 92.9495H18.8572C18.0714 92.9495 17.4346 92.3124 17.4346 91.5269V82.8791C17.4346 82.0934 18.0716 81.4565 18.8572 81.4565Z" fill="#0E6953" style="fill:#0E6953;fill:color(display-p3 0.0549 0.4118 0.3255);fill-opacity:1;"/>
<path d="M37.6116 88.9522C38.5772 88.9522 39.3599 88.1695 39.3599 87.2039C39.3599 86.2383 38.5772 85.4556 37.6116 85.4556C36.646 85.4556 35.8633 86.2383 35.8633 87.2039C35.8633 88.1695 36.646 88.9522 37.6116 88.9522Z" fill="#828A9E" style="fill:#828A9E;fill:color(display-p3 0.5098 0.5412 0.6196);fill-opacity:1;"/>
<path d="M51.208 71.2076L51.7 82.0574H71.5738C71.3451 76.7256 73.2916 71.5294 76.9675 67.6602C82.7101 61.6916 87.2219 55.6833 89.6407 49.5716C90.0691 48.4745 90.278 47.3042 90.2553 46.1266V27.7642C90.2368 26.0958 89.0619 24.6642 87.4291 24.3207C85.6413 24.0723 83.9803 25.2908 83.6804 27.0706L81.0695 44.0935C79.2736 48.8368 75.984 52.8673 71.6967 55.5772C70.5888 56.3362 69.3583 57.1771 67.9438 56.275C67.2377 55.3559 67.3252 54.0552 68.1481 53.2389L73.9519 48.6451C75.807 47.4471 76.6442 45.1648 76.0042 43.0513C75.7268 41.9034 74.5714 41.1979 73.4235 41.4753C73.1558 41.5402 72.903 41.656 72.6792 41.8166L60.9912 50.1645C58.9288 51.3104 57.1598 52.9183 55.8225 54.8617C52.4834 59.6334 50.8572 65.3943 51.208 71.2076Z" fill="#FFC278" style="fill:#FFC278;fill:color(display-p3 1.0000 0.7623 0.4717);fill-opacity:1;"/>
<path d="M50.3969 81.4565H72.8941C73.6903 81.4565 74.3359 82.1021 74.3359 82.8984V91.6647C74.3359 92.4609 73.6903 93.1065 72.8941 93.1065H50.3969C49.6007 93.1065 48.9551 92.4609 48.9551 91.6647V82.8984C48.9551 82.1019 49.6007 81.4565 50.3969 81.4565Z" fill="#0E6953" style="fill:#0E6953;fill:color(display-p3 0.0549 0.4118 0.3255);fill-opacity:1;"/>
<path d="M53.8936 89.2319C54.8719 89.2319 55.665 88.4388 55.665 87.4604C55.665 86.4821 54.8719 85.689 53.8936 85.689C52.9152 85.689 52.1221 86.4821 52.1221 87.4604C52.1221 88.4388 52.9152 89.2319 53.8936 89.2319Z" fill="#828A9E" style="fill:#828A9E;fill:color(display-p3 0.5098 0.5412 0.6196);fill-opacity:1;"/>
<g clip-path="url(#clip1_1_2396)">
<mask id="mask0_1_2396" style="mask-type:luminance" maskUnits="userSpaceOnUse" x="25" y="5" width="41" height="42">
<path d="M66 5.99951H25V46.9995H66V5.99951Z" fill="white" style="fill:white;fill-opacity:1;"/>
</mask>
<g mask="url(#mask0_1_2396)">
<path d="M53.4295 21.1272L42.6851 31.8716L37.5703 26.7568" stroke="#0E6953" style="stroke:#0E6953;stroke:color(display-p3 0.0549 0.4118 0.3255);stroke-opacity:1;" stroke-width="3" stroke-miterlimit="10" stroke-linecap="round" stroke-linejoin="round"/>
<mask id="mask1_1_2396" style="mask-type:luminance" maskUnits="userSpaceOnUse" x="25" y="5" width="41" height="42">
<path d="M25 5.99952H66V46.9995H25V5.99952Z" fill="white" style="fill:white;fill-opacity:1;"/>
</mask>
<g mask="url(#mask1_1_2396)">
<path d="M64.3984 26.4995C64.3984 36.9368 55.9373 45.3979 45.5 45.3979C35.0627 45.3979 26.6016 36.9368 26.6016 26.4995C26.6016 16.0622 35.0627 7.60108 45.5 7.60108C55.9373 7.60108 64.3984 16.0622 64.3984 26.4995Z" stroke="#0E6953" style="stroke:#0E6953;stroke:color(display-p3 0.0549 0.4118 0.3255);stroke-opacity:1;" stroke-width="3" stroke-miterlimit="10" stroke-linecap="round" stroke-linejoin="round"/>
</g>
</g>
</g>
</g>
<defs>
<clipPath id="clip0_1_2396">
<rect width="92.14" height="92.14" fill="white" style="fill:white;fill-opacity:1;" transform="translate(0 0.967285)"/>
</clipPath>
<clipPath id="clip1_1_2396">
<rect width="41" height="41" fill="white" style="fill:white;fill-opacity:1;" transform="translate(25 5.99951)"/>
</clipPath>
</defs>
</svg>
