<svg width="89" height="92" viewBox="0 0 89 92" fill="none" xmlns="http://www.w3.org/2000/svg">
<path d="M38.9897 70.1319L38.4984 80.9652H18.6548C18.8832 75.6415 16.9396 70.4532 13.2693 66.5899C7.53548 60.6304 3.03048 54.6312 0.615362 48.5288C0.187648 47.4336 -0.0209758 46.2648 0.00166364 45.089V26.7545C0.0201647 25.0887 1.19328 23.6593 2.82356 23.3163C4.60866 23.0682 6.26718 24.2849 6.56661 26.062L9.16673 43.059C10.9616 47.796 14.2487 51.8207 18.5321 54.5253C19.6383 55.2831 20.8669 56.1227 22.2793 55.222C22.9843 54.3043 22.8969 53.0055 22.0753 52.1905L16.2804 47.6037C14.4281 46.4075 13.5921 44.1287 14.2311 42.0184C14.5082 40.8723 15.6618 40.1678 16.8079 40.4448C17.0752 40.5095 17.3276 40.6252 17.5511 40.7856L29.2226 49.1208C31.2818 50.2652 33.0481 51.8704 34.3834 53.8111C37.7172 58.5756 39.3404 64.3277 38.9897 70.1319Z" fill="#FFC278" style="fill:#FFC278;fill:color(display-p3 1.0000 0.7623 0.4717);fill-opacity:1;"/>
<path d="M16.9532 80.3672H39.114C39.8986 80.3672 40.5344 81.0033 40.5344 81.7876V90.4223C40.5344 91.2068 39.8983 91.8427 39.114 91.8427H16.9532C16.1686 91.8427 15.5327 91.2066 15.5327 90.4223V81.7876C15.5327 81.003 16.1688 80.3672 16.9532 80.3672Z" fill="#0E6953" style="fill:#0E6953;fill:color(display-p3 0.0549 0.4118 0.3255);fill-opacity:1;"/>
<path d="M35.6793 87.8517C36.6434 87.8517 37.4249 87.0701 37.4249 86.106C37.4249 85.1419 36.6434 84.3604 35.6793 84.3604C34.7152 84.3604 33.9336 85.1419 33.9336 86.106C33.9336 87.0701 34.7152 87.8517 35.6793 87.8517Z" fill="#828A9E" style="fill:#828A9E;fill:color(display-p3 0.5098 0.5412 0.6196);fill-opacity:1;"/>
<path d="M49.2553 70.1338L49.7466 80.9672H69.5901C69.3618 75.6435 71.3054 70.4552 74.9756 66.5919C80.7095 60.6323 85.2145 54.6331 87.6296 48.5307C88.0573 47.4353 88.2659 46.2668 88.2433 45.091V26.7565C88.2248 25.0907 87.0517 23.6612 85.4214 23.3182C83.6363 23.0702 81.9778 24.2868 81.6784 26.0639L79.0714 43.061C77.2783 47.797 73.9936 51.8215 69.7128 54.5272C68.6066 55.2851 67.378 56.1247 65.9656 55.224C65.2606 54.3062 65.348 53.0075 66.1696 52.1925L71.9646 47.6057C73.8169 46.4094 74.6528 44.1306 74.0138 42.0203C73.7368 40.8742 72.5832 40.1697 71.4371 40.4467C71.1698 40.5115 70.9173 40.6271 70.6939 40.7876L59.0236 49.1228C56.9644 50.2669 55.198 51.8723 53.8628 53.8128C50.5287 58.5773 48.905 64.3294 49.2553 70.1338Z" fill="#FFC278" style="fill:#FFC278;fill:color(display-p3 1.0000 0.7623 0.4717);fill-opacity:1;"/>
<path d="M48.445 80.3672H70.908C71.703 80.3672 72.3476 81.0118 72.3476 81.8069V90.5598C72.3476 91.3548 71.703 91.9995 70.908 91.9995H48.445C47.65 91.9995 47.0054 91.3548 47.0054 90.5598V81.8069C47.0054 81.0116 47.65 80.3672 48.445 80.3672Z" fill="#0E6953" style="fill:#0E6953;fill:color(display-p3 0.0549 0.4118 0.3255);fill-opacity:1;"/>
<path d="M51.9363 88.1313C52.9132 88.1313 53.7051 87.3394 53.7051 86.3625C53.7051 85.3857 52.9132 84.5938 51.9363 84.5938C50.9594 84.5938 50.1675 85.3857 50.1675 86.3625C50.1675 87.3394 50.9594 88.1313 51.9363 88.1313Z" fill="#828A9E" style="fill:#828A9E;fill:color(display-p3 0.5098 0.5412 0.6196);fill-opacity:1;"/>
<path d="M54.4435 -0.000803304C50.6269 -0.00202048 46.9442 1.40674 44.1026 3.95452C37.7039 -1.76619 27.8792 -1.21676 22.1582 5.18168C19.6065 8.0357 18.198 11.731 18.2026 15.5595C18.2026 31.6778 44.1024 48.8504 44.1024 48.8504C44.1024 48.8504 70.0418 31.7348 70.0021 15.5595C69.9948 6.96946 63.0336 0.00747347 54.4435 -0.000803304Z" fill="#EF5261" style="fill:#EF5261;fill:color(display-p3 0.9373 0.3216 0.3804);fill-opacity:1;"/>
</svg>
