<svg width="16" height="16" viewBox="0 0 16 16" fill="none" xmlns="http://www.w3.org/2000/svg">
<g clip-path="url(#clip0_1_288)">
<path d="M8.46233 0.377706C8.19391 0.578108 7.79102 0.578254 7.5226 0.377848C7.23131 0.160366 6.85843 0.00387953 6.38717 0C6.38214 0 6.37664 0 6.37161 0C5.26473 0 4.32861 0.951687 4.28101 2.12906C4.22426 3.51928 5.26748 4.43128 6.84633 5.76428C7.05881 5.94357 7.21743 6.07806 7.342 6.18423C7.71817 6.50481 8.26701 6.50481 8.64323 6.18427C8.76478 6.0807 8.92257 5.94684 9.13745 5.76522C10.7172 4.43175 11.7609 3.51978 11.7046 2.12953C11.6569 0.951687 10.7208 0 9.61392 0C9.60889 0 9.60339 0 9.59789 0C9.12647 0.00387869 8.75353 0.160298 8.46233 0.377706Z" fill="#D1D1D1" style="fill:#D1D1D1;fill:color(display-p3 0.8198 0.8198 0.8198);fill-opacity:1;"/>
<path d="M0.403125 9.70625L4.07188 13.4656C4.19375 13.6719 4.25 13.9063 4.25 14.1406V14.3594C4.25 15.2655 4.98453 16 5.89063 16C6.79672 16 7.53125 15.2655 7.53125 14.3594V10.9557C7.53125 9.8967 7.1113 8.88092 6.36348 8.13108L4.44691 6.20934C4.08125 5.84375 3.48125 5.84375 3.11559 6.20934C2.75453 6.57041 2.76444 7.17072 3.07813 7.48438C3.08534 7.49878 4.52546 8.9406 5.18843 9.60396C5.36996 9.7856 5.37011 10.0788 5.18981 10.2617C5.0077 10.4464 4.70999 10.4475 4.52657 10.264L2.31875 8.05625C2.05622 7.79372 1.90625 7.43747 1.90625 7.0625V3.78125C1.90625 3.26347 1.48653 2.84375 0.96875 2.84375C0.450969 2.84375 0 3.26347 0 3.78125V8.42188C0 9.22288 0.359281 9.61244 0.403125 9.70625Z" fill="#D1D1D1" style="fill:#D1D1D1;fill:color(display-p3 0.8198 0.8198 0.8198);fill-opacity:1;"/>
<path d="M15.0313 2.84375C14.5135 2.84375 14.0938 3.26347 14.0938 3.78125V7.0625C14.0938 7.43747 13.9438 7.79372 13.6812 8.05625L11.4734 10.264C11.29 10.4475 10.9923 10.4464 10.8102 10.2617C10.6299 10.0788 10.63 9.78561 10.8116 9.60397C11.4745 8.94062 12.9147 7.49878 12.9219 7.48438C13.2356 7.17069 13.2455 6.57041 12.8844 6.20934C12.5188 5.84375 11.9188 5.84375 11.5531 6.20934L9.63653 8.13108C8.88871 8.88092 8.46875 9.89671 8.46875 10.9557V14.3594C8.46875 15.2655 9.20328 16 10.1094 16C11.0155 16 11.75 15.2655 11.75 14.3594V14.1406C11.75 13.9063 11.8063 13.6719 11.9281 13.4656L15.5969 9.70625C15.6407 9.61247 16 9.22091 16 8.42188V3.78125C16 3.26347 15.549 2.84375 15.0313 2.84375Z" fill="#D1D1D1" style="fill:#D1D1D1;fill:color(display-p3 0.8198 0.8198 0.8198);fill-opacity:1;"/>
</g>
<defs>
<clipPath id="clip0_1_288">
<rect width="16" height="16" fill="white" style="fill:white;fill-opacity:1;"/>
</clipPath>
</defs>
</svg>
