<svg width="13" height="13" viewBox="0 0 13 13" fill="none" xmlns="http://www.w3.org/2000/svg">
<g clip-path="url(#clip0_1_1483)">
<path d="M5.39135 9.25275L5.32654 10.682H2.70864C2.73876 9.97962 2.48235 9.29514 1.99814 8.78547C1.24169 7.99925 0.647361 7.20779 0.328742 6.40271C0.272314 6.25822 0.244791 6.10404 0.247778 5.94892V3.5301C0.250219 3.31033 0.404984 3.12175 0.620062 3.0765C0.855566 3.04377 1.07437 3.20429 1.11387 3.43873L1.4569 5.68111C1.69369 6.30604 2.12734 6.83701 2.69245 7.19382C2.83839 7.29379 3.00047 7.40456 3.18681 7.28573C3.27981 7.16466 3.26828 6.99332 3.15989 6.8858L2.39538 6.28067C2.15101 6.12286 2.04073 5.82222 2.12503 5.54381C2.16158 5.39261 2.31378 5.29967 2.46498 5.33622C2.50024 5.34476 2.53354 5.36001 2.56303 5.38118L4.10281 6.48082C4.37448 6.63179 4.60751 6.84356 4.78366 7.09959C5.22348 7.72816 5.43763 8.48702 5.39135 9.25275Z" fill="#FFC278" style="fill:#FFC278;fill:color(display-p3 1.0000 0.7623 0.4717);fill-opacity:1;"/>
<path d="M2.48329 10.6025H5.40691C5.51042 10.6025 5.5943 10.6865 5.5943 10.7899V11.9291C5.5943 12.0326 5.51038 12.1165 5.40691 12.1165H2.48329C2.37978 12.1165 2.2959 12.0326 2.2959 11.9291V10.7899C2.2959 10.6864 2.37982 10.6025 2.48329 10.6025Z" fill="#0E6953" style="fill:#0E6953;fill:color(display-p3 0.0549 0.4118 0.3255);fill-opacity:1;"/>
<path d="M4.95442 11.5905C5.08161 11.5905 5.18472 11.4874 5.18472 11.3602C5.18472 11.233 5.08161 11.1299 4.95442 11.1299C4.82723 11.1299 4.72412 11.233 4.72412 11.3602C4.72412 11.4874 4.82723 11.5905 4.95442 11.5905Z" fill="#828A9E" style="fill:#828A9E;fill:color(display-p3 0.5098 0.5412 0.6196);fill-opacity:1;"/>
<path d="M6.74592 9.25275L6.81073 10.682H9.42864C9.39851 9.97962 9.65492 9.29514 10.1391 8.78547C10.8956 7.99925 11.4899 7.20779 11.8085 6.40271C11.865 6.25819 11.8925 6.10404 11.8895 5.94892V3.5301C11.8871 3.31033 11.7323 3.12175 11.5172 3.0765C11.2817 3.04377 11.0629 3.20429 11.0234 3.43873L10.6795 5.68111C10.4429 6.30592 10.0096 6.83685 9.44482 7.19382C9.29889 7.29379 9.1368 7.40456 8.95047 7.28573C8.85746 7.16466 8.86899 6.99332 8.97738 6.8858L9.74189 6.28067C9.98626 6.12286 10.0965 5.82222 10.0122 5.54381C9.97569 5.39261 9.8235 5.29967 9.6723 5.33622C9.63703 5.34476 9.60373 5.36001 9.57425 5.38118L8.03463 6.48082C7.76296 6.63176 7.52993 6.84356 7.35377 7.09956C6.91392 7.72812 6.69971 8.48698 6.74592 9.25275Z" fill="#FFC278" style="fill:#FFC278;fill:color(display-p3 1.0000 0.7623 0.4717);fill-opacity:1;"/>
<path d="M6.63817 10.6025H9.60164C9.70653 10.6025 9.79158 10.6876 9.79158 10.7925V11.9472C9.79158 12.0521 9.70653 12.1372 9.60164 12.1372H6.63817C6.53328 12.1372 6.44824 12.0521 6.44824 11.9472V10.7925C6.44824 10.6875 6.53328 10.6025 6.63817 10.6025Z" fill="#0E6953" style="fill:#0E6953;fill:color(display-p3 0.0549 0.4118 0.3255);fill-opacity:1;"/>
<path d="M7.09859 11.6269C7.22746 11.6269 7.33194 11.5224 7.33194 11.3935C7.33194 11.2646 7.22746 11.1602 7.09859 11.1602C6.96971 11.1602 6.86523 11.2646 6.86523 11.3935C6.86523 11.5224 6.96971 11.6269 7.09859 11.6269Z" fill="#828A9E" style="fill:#828A9E;fill:color(display-p3 0.5098 0.5412 0.6196);fill-opacity:1;"/>
<path d="M7.43057 2.28575e-05C6.92706 -0.000137721 6.44121 0.185715 6.06633 0.521838C5.22217 -0.23288 3.92601 -0.160395 3.17126 0.683733C2.83463 1.06026 2.64881 1.54777 2.64942 2.05285C2.64942 4.17929 6.06629 6.44483 6.06629 6.44483C6.06629 6.44483 9.48841 4.18681 9.48317 2.05285C9.48221 0.91959 8.56383 0.00111479 7.43057 2.28575e-05Z" fill="#EF5261" style="fill:#EF5261;fill:color(display-p3 0.9373 0.3216 0.3804);fill-opacity:1;"/>
</g>
<defs>
<clipPath id="clip0_1_1483">
<rect width="12.1373" height="12.1373" fill="white" style="fill:white;fill-opacity:1;"/>
</clipPath>
</defs>
</svg>
