<svg width="136" height="30" viewBox="0 0 136 30" fill="none" xmlns="http://www.w3.org/2000/svg">
<path d="M31.1714 20.7112C31.0074 18.8613 32.3683 17.2344 34.2168 17.0703C36.058 16.9069 37.6838 18.2688 37.8477 20.1187C38.011 21.9613 36.6501 23.5882 34.8089 23.7516C32.9604 23.9157 31.3346 22.5538 31.1714 20.7112Z" fill="#F7D44C" style="fill:#F7D44C;fill:color(display-p3 0.9686 0.8314 0.2980);fill-opacity:1;"/>
<path d="M128.627 3.34426C128.464 5.18687 129.825 6.81379 131.673 6.97785C133.514 7.14125 135.14 5.77938 135.303 3.93677C135.467 2.08691 134.106 0.459987 132.265 0.29658C130.417 0.132529 128.791 1.4944 128.627 3.34426Z" fill="#F7D44C" style="fill:#F7D44C;fill:color(display-p3 0.9686 0.8314 0.2980);fill-opacity:1;"/>
<path d="M115.73 2.07013C124.889 3.92115 128.861 8.77947 129.107 18.1233L124.714 18.1234C124.304 11.2069 122.479 8.05228 115.73 6.46627L115.73 2.07013Z" fill="#F7D44C" style="fill:#F7D44C;fill:color(display-p3 0.9686 0.8314 0.2980);fill-opacity:1;"/>
<path d="M114.041 10.2205C118.057 10.2205 120.629 12.9513 120.629 17.2036V29.6483H117.667V17.5547C117.667 14.4727 115.912 12.6392 113.067 12.6392C110.143 12.6392 108.389 14.5508 108.389 17.5547V29.6483H105.426V17.5547C105.426 14.4727 103.711 12.6392 100.787 12.6392C97.9414 12.6392 96.1482 14.5508 96.1482 17.5547V29.6483H93.1465V10.5326H96.1482V13.3804C97.2787 11.2738 99.2278 10.2205 101.918 10.2205C104.724 10.2205 106.868 11.6249 107.804 14.0826C108.857 11.6249 111.079 10.2205 114.041 10.2205Z" fill="white" style="fill:white;fill-opacity:1;"/>
<path d="M85.8107 14.0436V10.5326H88.7734V29.6483H85.8107V26.1763C84.0175 28.712 81.4836 29.9994 78.1701 29.9994C75.4023 29.9994 73.1413 29.0631 71.3871 27.1906C69.5939 25.318 68.6973 22.9383 68.6973 20.0904C68.6973 17.2426 69.5939 14.8629 71.3871 12.9903C73.1413 11.1567 75.4023 10.2205 78.1701 10.2205C81.4836 10.2205 84.0175 11.5078 85.8107 14.0436ZM78.7938 27.3856C80.8209 27.3856 82.4972 26.6834 83.8226 25.318C85.148 23.9526 85.8107 22.2361 85.8107 20.0904C85.8107 17.9838 85.148 16.2283 83.8226 14.8629C82.4972 13.4974 80.8209 12.8342 78.7938 12.8342C76.7277 12.8342 75.0515 13.4974 73.7261 14.8629C72.4006 16.2283 71.7379 17.9838 71.7379 20.0904C71.7379 22.2361 72.4006 23.9526 73.7261 25.318C75.0515 26.6834 76.7277 27.3856 78.7938 27.3856Z" fill="white" style="fill:white;fill-opacity:1;"/>
<path d="M58.0764 10.2205C60.3374 10.2205 62.1696 10.9227 63.573 12.3661C64.9764 13.8095 65.6781 15.7601 65.6781 18.1398V29.6483H62.7154V18.4909C62.7154 14.9019 60.5324 12.6002 57.2188 12.6002C53.8273 12.6002 51.6443 14.9019 51.6443 18.4909V29.6483H48.6426V10.5326H51.6443V13.9266C52.9307 11.4688 55.0747 10.2205 58.0764 10.2205Z" fill="white" style="fill:white;fill-opacity:1;"/>
<path d="M29.0272 5.07104H39.9814V7.02163H29.0272V5.07104ZM41.3068 14.0437V10.5327H44.2695V29.6484H41.3068V26.1764C39.5136 28.7121 36.9797 29.9995 33.6662 29.9995C30.8984 29.9995 28.6374 29.0632 26.8832 27.1907C25.09 25.3181 24.1934 22.9384 24.1934 20.0905C24.1934 17.2427 25.09 14.863 26.8832 12.9904C28.6374 11.1569 30.8984 10.2206 33.6662 10.2206C36.9797 10.2206 39.5136 11.508 41.3068 14.0437ZM34.2899 27.3857C36.317 27.3857 37.9933 26.6835 39.3187 25.3181C40.6441 23.9527 41.3068 22.2362 41.3068 20.0905C41.3068 17.9839 40.6441 16.2284 39.3187 14.863C37.9933 13.4976 36.317 12.8344 34.2899 12.8344C32.2238 12.8344 30.5476 13.4976 29.2221 14.863C27.8967 16.2284 27.234 17.9839 27.234 20.0905C27.234 22.2362 27.8967 23.9527 29.2221 25.3181C30.5476 26.6835 32.2238 27.3857 34.2899 27.3857Z" fill="white" style="fill:white;fill-opacity:1;"/>
<path d="M0 2.73021H8.22538C12.3186 2.73021 15.6711 3.97858 18.205 6.43632C20.7389 8.93307 22.0253 12.171 22.0253 16.1502C22.0253 20.1684 20.7389 23.4064 18.205 25.9032C15.6711 28.3999 12.3186 29.6483 8.22538 29.6483H0V2.73021ZM3.15761 26.8394H8.22538C11.383 26.8394 13.9169 25.8642 15.866 23.8746C17.8152 21.885 18.7897 19.3102 18.7897 16.1112C18.7897 12.9513 17.8152 10.4155 15.866 8.46493C13.9169 6.55336 11.383 5.57806 8.22538 5.57806H3.15761V26.8394Z" fill="white" style="fill:white;fill-opacity:1;"/>
</svg>
