<svg width="122" height="308" viewBox="0 0 122 308" fill="none" xmlns="http://www.w3.org/2000/svg">
<path d="M89.8707 1C74.8391 2.18879 58.9367 15.6248 47.7806 23.1325C21.0643 41.1119 12.2593 74.3948 5.25812 101.568C2.09733 113.836 2.04457 125.526 1.00586 137.996C2.23108 148.39 1.00586 144.053 2.23108 155.132C2.23108 177.015 4.76437 198.085 14.6275 218.583C22.0632 234.036 33.408 249.985 45.0419 263.287C49.4589 268.337 53.1651 273.673 57.4383 278.836C60.911 283.032 65.1408 285.282 69.114 288.93C76.2558 295.488 85.2151 301.459 95.4923 303.288C104.15 304.829 112.98 309.484 121.006 305.295" stroke="#B9D7D0" style="stroke:#B9D7D0;stroke:color(display-p3 0.7238 0.8449 0.8174);stroke-opacity:1;" stroke-width="2" stroke-linecap="round" stroke-dasharray="8 8"/>
</svg>
