<svg width="64" height="64" viewBox="0 0 64 64" fill="none" xmlns="http://www.w3.org/2000/svg">
<rect width="64" height="64" rx="32" fill="white" style="fill:white;fill-opacity:1;"/>
<rect x="1.5" y="1.5" width="61" height="61" rx="30.5" stroke="#0B5442" stroke-opacity="0.12" style="stroke:#0B5442;stroke:color(display-p3 0.0435 0.3286 0.2587);stroke-opacity:0.12;" stroke-width="3"/>
<path d="M22.6045 21.3245H29.4795C29.9499 21.3247 30.333 21.7088 30.333 22.179V26.304C30.3328 26.7742 29.9497 27.1573 29.4795 27.1575H22.6045C22.1343 27.1575 21.7502 26.7743 21.75 26.304V22.179C21.75 21.7086 22.1342 21.3245 22.6045 21.3245Z" stroke="#212121" style="stroke:#212121;stroke:color(display-p3 0.1294 0.1294 0.1294);stroke-opacity:1;" stroke-width="1.5"/>
<path d="M22.6045 30.4915H29.4795C29.9498 30.4917 30.333 30.8756 30.333 31.3459V40.9709C30.3329 41.441 29.9498 41.8243 29.4795 41.8245H22.6045C22.1342 41.8245 21.7501 41.4412 21.75 40.9709V31.3459C21.75 30.8754 22.1342 30.4915 22.6045 30.4915Z" stroke="#212121" style="stroke:#212121;stroke:color(display-p3 0.1294 0.1294 0.1294);stroke-opacity:1;" stroke-width="1.5"/>
<path d="M34.521 35.9915H41.396C41.8662 35.9916 42.2495 36.3755 42.2495 36.8459V40.9709C42.2494 41.4411 41.8662 41.8243 41.396 41.8245H34.521C34.0505 41.8245 33.6666 41.4411 33.6665 40.9709V36.8459C33.6665 36.3754 34.0505 35.9915 34.521 35.9915Z" stroke="#212121" style="stroke:#212121;stroke:color(display-p3 0.1294 0.1294 0.1294);stroke-opacity:1;" stroke-width="1.5"/>
<path d="M34.521 21.3245H41.396C41.8662 21.3246 42.2495 21.7087 42.2495 22.179V31.804C42.2493 32.2743 41.8661 32.6574 41.396 32.6575H34.521C34.0506 32.6575 33.6667 32.2743 33.6665 31.804V22.179C33.6665 21.7087 34.0504 21.3245 34.521 21.3245Z" stroke="#212121" style="stroke:#212121;stroke:color(display-p3 0.1294 0.1294 0.1294);stroke-opacity:1;" stroke-width="1.5"/>
</svg>
