<svg width="123" height="282" viewBox="0 0 123 282" fill="none" xmlns="http://www.w3.org/2000/svg">
<path d="M20.5 1C35.5316 2.04504 63.8439 19.9001 75 26.5C100.5 44 109.747 76.5203 116.748 100.408C119.909 111.193 119.961 121.469 121 132.431C121 141 121.5 137.5 121 147.5C121 166.737 117.241 185.255 107.378 203.274C99.9426 216.858 88.5979 230.879 76.964 242.572C72.5469 247.012 68.8407 251.703 64.5676 256.241C61.0948 259.93 56.865 261.908 52.8919 265.115C45.7501 270.88 36.7908 276.129 26.5135 277.737C17.8558 279.091 9.02558 283.183 1 279.501" stroke="#B9D7D0" style="stroke:#B9D7D0;stroke:color(display-p3 0.7238 0.8449 0.8174);stroke-opacity:1;" stroke-width="2" stroke-linecap="round" stroke-dasharray="8 8"/>
</svg>
