<svg width="124" height="352" viewBox="0 0 124 352" fill="none" xmlns="http://www.w3.org/2000/svg">
<path d="M32.1949 1.00006C47.2555 2.28683 63.1884 16.8303 74.3659 24.9569C101.133 44.4181 109.955 80.4444 116.97 109.858C120.137 123.137 120.19 135.79 121.23 149.288C122.192 161.76 122 172 122 186C122 208.386 117.465 233.108 107.583 255.295C100.133 272.022 88.7661 289.286 77.1099 303.684C72.6843 309.15 68.971 314.926 64.6897 320.514C61.2102 325.056 57.5 329.5 52.9916 332.441C44.5 339.5 36.8595 345.003 26.5625 346.982C17.8882 348.65 9.041 353.688 1 349.154" stroke="#B9D7D0" style="stroke:#B9D7D0;stroke:color(display-p3 0.7238 0.8449 0.8174);stroke-opacity:1;" stroke-width="2" stroke-linecap="round" stroke-dasharray="8 8"/>
</svg>
