<svg width="50" height="55" viewBox="0 0 50 55" fill="none" xmlns="http://www.w3.org/2000/svg">
<path d="M33.3341 5.5H16.6674C15.9307 5.5 15.2242 5.21027 14.7032 4.69454C14.1823 4.17882 13.8896 3.47935 13.8896 2.75C13.8896 2.02065 14.1823 1.32118 14.7032 0.805456C15.2242 0.289731 15.9307 0 16.6674 0H33.3341C34.0708 0 34.7773 0.289731 35.2983 0.805456C35.8192 1.32118 36.1119 2.02065 36.1119 2.75C36.1119 3.47935 35.8192 4.17882 35.2983 4.69454C34.7773 5.21027 34.0708 5.5 33.3341 5.5Z" fill="#0E6953"/>
<path d="M33.3334 55H16.6668C13.7199 55 10.8938 53.8411 8.81003 51.7782C6.7263 49.7153 5.55566 46.9174 5.55566 44V11H44.4446V44C44.4446 46.9174 43.2739 49.7153 41.1902 51.7782C39.1064 53.8411 36.2803 55 33.3334 55Z" fill="#FFC278"/>
<path d="M47.2222 16.5H2.77778C2.04107 16.5 1.33453 16.2103 0.813592 15.6945C0.292658 15.1788 0 14.4793 0 13.75C0 13.0207 0.292658 12.3212 0.813592 11.8055C1.33453 11.2897 2.04107 11 2.77778 11H47.2222C47.9589 11 48.6655 11.2897 49.1864 11.8055C49.7073 12.3212 50 13.0207 50 13.75C50 14.4793 49.7073 15.1788 49.1864 15.6945C48.6655 16.2103 47.9589 16.5 47.2222 16.5Z" fill="#FFC278"/>
<path d="M19.4438 44C18.7071 44 18.0005 43.7103 17.4796 43.1945C16.9587 42.6788 16.666 41.9793 16.666 41.25V24.75C16.666 24.0207 16.9587 23.3212 17.4796 22.8055C18.0005 22.2897 18.7071 22 19.4438 22C20.1805 22 20.887 22.2897 21.408 22.8055C21.9289 23.3212 22.2216 24.0207 22.2216 24.75V41.25C22.2216 41.9793 21.9289 42.6788 21.408 43.1945C20.887 43.7103 20.1805 44 19.4438 44Z" fill="white"/>
<path d="M30.5541 44C29.8174 44 29.1109 43.7103 28.59 43.1945C28.069 42.6788 27.7764 41.9793 27.7764 41.25V24.75C27.7764 24.0207 28.069 23.3212 28.59 22.8055C29.1109 22.2897 29.8174 22 30.5541 22C31.2909 22 31.9974 22.2897 32.5183 22.8055C33.0393 23.3212 33.3319 24.0207 33.3319 24.75V41.25C33.3319 41.9793 33.0393 42.6788 32.5183 43.1945C31.9974 43.7103 31.2909 44 30.5541 44Z" fill="white"/>
</svg>
