<svg width="30" height="30" viewBox="0 0 30 30" fill="none" xmlns="http://www.w3.org/2000/svg">
<circle cx="15" cy="15" r="15" fill="white"/>
<g clip-path="url(#clip0_1_1266)">
<path d="M9.39723 11.7634V20.9953C9.39723 21.541 9.59732 22.0534 9.94685 22.4211C10.2948 22.7898 10.779 22.9991 11.2857 23H18.3752C18.8821 22.9991 19.3663 22.7898 19.7141 22.4211C20.0636 22.0534 20.2637 21.541 20.2637 20.9953V11.7634C20.9585 11.5789 21.4088 10.9077 21.3158 10.1947C21.2227 9.48189 20.6154 8.94867 19.8965 8.94852H17.978V8.48014C17.9802 8.08626 17.8245 7.70804 17.5456 7.42979C17.2668 7.15169 16.888 6.99683 16.4941 7.00005H13.1668C12.773 6.99683 12.3942 7.15169 12.1153 7.42979C11.8365 7.70804 11.6807 8.08626 11.6829 8.48014V8.48014V8.94852H9.76448C9.04551 8.94867 8.43822 9.48189 8.34513 10.1947C8.25219 10.9077 8.70242 11.5789 9.39723 11.7634ZM18.3752 22.2506H11.2857C10.645 22.2506 10.1466 21.7002 10.1466 20.9953V11.7963H19.5143V20.9953C19.5143 21.7002 19.0159 22.2506 18.3752 22.2506ZM12.4324 8.48014C12.4299 8.28503 12.5066 8.09724 12.645 7.9595C12.7833 7.82177 12.9716 7.7461 13.1668 7.74946H16.4941C16.6894 7.7461 16.8776 7.82177 17.0159 7.9595C17.1544 8.09709 17.2311 8.28503 17.2286 8.48014V8.94852H12.4324V8.48014ZM9.76448 9.69793H19.8965C20.269 9.69793 20.5709 9.99989 20.5709 10.3724C20.5709 10.7449 20.269 11.0469 19.8965 11.0469H9.76448C9.39196 11.0469 9.09 10.7449 9.09 10.3724C9.09 9.99989 9.39196 9.69793 9.76448 9.69793Z" fill="currentColor" stroke="currentColor" stroke-width="0.2"/>
<path d="M13.5 14C13.2238 14 13 14.1285 13 14.2871V19.7129C13 19.8714 13.2238 20 13.5 20C13.7762 20 14 19.8714 14 19.7129V14.2871C14 14.1285 13.7762 14 13.5 14Z" fill="currentColor" stroke="currentColor" stroke-width="0.2"/>
<path d="M16.5 14C16.2238 14 16 14.1285 16 14.2871V19.7129C16 19.8714 16.2238 20 16.5 20C16.7762 20 17 19.8714 17 19.7129V14.2871C17 14.1285 16.7762 14 16.5 14Z" fill="currentColor" stroke="currentColor" stroke-width="0.2"/>
</g>
<defs>
<clipPath id="clip0_1_1266">
<rect width="16" height="16" fill="white" transform="translate(7 7)"/>
</clipPath>
</defs>
</svg>
