<svg width="40" height="40" viewBox="0 0 40 40" fill="none" xmlns="http://www.w3.org/2000/svg">
<g clip-path="url(#clip0_1_9986)">
<path d="M24.2188 32.0312C28.5335 32.0312 32.0312 28.5335 32.0312 24.2188C32.0312 19.904 28.5335 16.4062 24.2188 16.4062C19.904 16.4062 16.4062 19.904 16.4062 24.2188C16.4062 28.5335 19.904 32.0312 24.2188 32.0312Z" fill="#F7D44C" style="fill:#F7D44C;fill:color(display-p3 0.9686 0.8314 0.2980);fill-opacity:1;"/>
<path d="M39.3134 35.9996L32.8614 29.5476C32.0291 30.8927 30.892 32.0299 29.5469 32.8622L35.9989 39.3142C36.9142 40.2296 38.3982 40.2296 39.3134 39.3142C40.2288 38.3989 40.2288 36.915 39.3134 35.9996Z" fill="#F7D44C" style="fill:#F7D44C;fill:color(display-p3 0.9686 0.8314 0.2980);fill-opacity:1;"/>
<path d="M7.81156 0.686768L0.685547 7.81278H7.81156V0.686768Z" fill="#0E6953" style="fill:#0E6953;fill:color(display-p3 0.0549 0.4118 0.3255);fill-opacity:1;"/>
<path d="M7.03125 20.3125H14.8442C15.4823 18.7867 16.4823 17.4487 17.7366 16.4062H7.03125V20.3125Z" fill="#0E6953" style="fill:#0E6953;fill:color(display-p3 0.0549 0.4118 0.3255);fill-opacity:1;"/>
<path d="M14.1827 22.6562H5.85938C5.21219 22.6562 4.6875 22.1316 4.6875 21.4844V15.2344C4.6875 14.5872 5.21219 14.0625 5.85938 14.0625H24.2188C26.5739 14.0625 28.7441 14.8684 30.4688 16.2188V3.51562C30.4688 1.57711 28.8916 0 26.9531 0H10.1562V8.98438C10.1562 9.63156 9.63156 10.1562 8.98438 10.1562H0V36.4844C0 38.4229 1.57711 40 3.51562 40H26.9531C28.6986 40 30.1503 38.7212 30.4223 37.0515L27.2754 33.9045C26.3102 34.2098 25.2835 34.375 24.2188 34.375C21.7566 34.375 19.4966 33.4941 17.7366 32.0312H5.85938C5.21219 32.0312 4.6875 31.5066 4.6875 30.8594C4.6875 30.2122 5.21219 29.6875 5.85938 29.6875H15.6639C15.1995 28.9636 14.8252 28.177 14.5551 27.3438H5.85938C5.21219 27.3438 4.6875 26.8191 4.6875 26.1719C4.6875 25.5247 5.21219 25 5.85938 25H14.0923C13.9853 23.8302 14.1827 22.6562 14.1827 22.6562ZM24.6094 11.7188H13.6719C13.0247 11.7188 12.5 11.1941 12.5 10.5469C12.5 9.89969 13.0247 9.375 13.6719 9.375H24.6094C25.2566 9.375 25.7812 9.89969 25.7812 10.5469C25.7812 11.1941 25.2566 11.7188 24.6094 11.7188Z" fill="#0E6953" style="fill:#0E6953;fill:color(display-p3 0.0549 0.4118 0.3255);fill-opacity:1;"/>
</g>
<defs>
<clipPath id="clip0_1_9986">
<rect width="40" height="40" fill="white" style="fill:white;fill-opacity:1;"/>
</clipPath>
</defs>
</svg>
