<svg width="30" height="30" viewBox="0 0 30 30" fill="none" xmlns="http://www.w3.org/2000/svg">
<g clip-path="url(#clip0_1_1257)">
<path d="M15.193 11.1338C13.5029 11.1338 12.1328 12.5038 12.1328 14.194C12.1328 15.884 13.5029 17.2541 15.193 17.2541C16.883 17.2541 18.2532 15.8841 18.2532 14.194C18.2532 12.5038 16.8831 11.1338 15.193 11.1338ZM15.193 15.7969C14.3077 15.7969 13.59 15.0792 13.59 14.1939C13.59 13.3086 14.3077 12.5909 15.193 12.5909C16.0783 12.5909 16.7959 13.3086 16.7959 14.1939C16.7959 15.0792 16.0783 15.7969 15.193 15.7969Z" fill="currentColor"/>
<path d="M27.3967 4.13936L7.50569 1.88073C6.73371 1.77097 5.95155 1.99634 5.35633 2.50007C4.76118 2.96155 4.37969 3.6456 4.29985 4.39443L3.93558 7.38174H2.80616C1.2032 7.38174 0.000984514 8.80249 0.000984514 10.4054V25.3055C-0.0393892 26.834 1.16701 28.106 2.69564 28.1463C2.73245 28.1473 2.76934 28.1475 2.80616 28.147H22.8064C24.4094 28.147 25.8666 26.9084 25.8666 25.3055V24.7226C26.3636 24.6266 26.835 24.428 27.251 24.1397C27.8412 23.6427 28.2192 22.939 28.3074 22.1725L29.9833 7.38174C30.1541 5.77509 29.0011 4.32979 27.3967 4.13936ZM24.4094 25.3055C24.4094 26.1069 23.6079 26.6898 22.8064 26.6898H2.80616C2.08215 26.7111 1.47801 26.1414 1.45674 25.4174C1.45563 25.3801 1.45611 25.3428 1.45821 25.3055V22.6096L7.10495 18.4566C7.78329 17.9357 8.73873 17.982 9.36365 18.5658L13.3346 22.0631C13.9376 22.5695 14.6967 22.8525 15.484 22.8646C16.0996 22.8722 16.7051 22.7082 17.2327 22.391L24.4095 18.238V25.3055H24.4094ZM24.4094 16.5257L16.4676 21.1524C15.7856 21.5564 14.9224 21.4833 14.3181 20.9703L10.3108 17.4365C9.16227 16.4496 7.48359 16.3891 6.26701 17.2907L1.45821 20.7881V10.4054C1.45821 9.60397 2.00468 8.83896 2.80616 8.83896H22.8064C23.6627 8.87445 24.3542 9.55028 24.4094 10.4054V16.5257ZM28.5274 7.18503C28.527 7.18984 28.5265 7.19472 28.526 7.19953L26.8138 21.9903C26.8167 22.3738 26.6418 22.737 26.3402 22.9739C26.1944 23.1196 25.8665 23.1925 25.8665 23.2654V10.4054C25.809 8.7458 24.4666 7.41932 22.8064 7.38174H5.39273L5.7206 4.54017C5.79173 4.1722 5.98411 3.83875 6.26708 3.59295C6.58658 3.37205 6.97288 3.26906 7.36003 3.30148L27.2146 5.59658C28.0157 5.67265 28.6035 6.38383 28.5274 7.18503Z" fill="currentColor"/>
</g>
<defs>
<clipPath id="clip0_1_1257">
<rect width="30" height="30" fill="white"/>
</clipPath>
</defs>
</svg>
