<svg width="19" height="16" viewBox="0 0 19 16" fill="none" xmlns="http://www.w3.org/2000/svg">
<path fill-rule="evenodd" clip-rule="evenodd" d="M15.5662 9.14776L15.5704 9.14275C16.6615 7.83149 17.0644 6.72137 17.0618 5.58761L17.0618 5.58414C17.0618 4.39324 16.6558 3.36262 15.9865 2.63361C15.3116 1.9033 14.3962 1.5 13.3765 1.5C12.6409 1.5 11.982 1.72353 11.38 2.19092C11.0482 2.45073 10.7512 2.76279 10.4971 3.11636L9.26766 4.82691L8.05338 3.10556C7.81258 2.76421 7.51801 2.45723 7.17983 2.19217C6.57311 1.72415 5.916 1.5 5.18527 1.5C4.17037 1.5 3.25353 1.90258 2.57352 2.63558C1.90426 3.36173 1.5 4.39382 1.5 5.58414C1.5 6.72075 1.90445 7.83273 2.99278 9.14439L2.99351 9.14525C3.3042 9.52028 4.29424 10.4194 5.56806 11.5085C6.79165 12.5546 8.14948 13.6697 9.08269 14.4278L9.08468 14.4294C9.20007 14.5235 9.36174 14.5235 9.47714 14.4294L9.47912 14.4278C10.4127 13.6694 11.7714 12.5544 12.9953 11.5083C14.2704 10.4186 15.2585 9.52082 15.5662 9.14776ZM10.4576 1.00805C11.3206 0.337224 12.3032 0 13.3765 0C14.8125 0 16.1287 0.576544 17.0896 1.61722C18.036 2.64703 18.5618 4.05031 18.5618 5.58414C18.5654 7.15059 17.9816 8.59014 16.7234 10.1022C15.9039 11.0958 12.2996 14.0691 10.4249 15.5921C9.75773 16.136 8.80408 16.136 8.13688 15.5921C6.26221 14.0691 2.66153 11.0958 1.83841 10.1022C0.583796 8.59014 0 7.15059 0 5.58414C0 4.05394 0.522153 2.64703 1.47218 1.61722C2.43671 0.576544 3.75297 0 5.18527 0C6.25858 0 7.23762 0.34085 8.10062 1.00805C8.1486 1.04558 8.19599 1.08381 8.24279 1.12273C8.63459 1.44861 8.98433 1.82306 9.27909 2.24091C9.57741 1.82586 9.92502 1.44851 10.3167 1.12182C10.3631 1.08318 10.41 1.04525 10.4576 1.00805Z" fill="#ADADAD" style="fill:#ADADAD;fill:color(display-p3 0.6784 0.6784 0.6784);fill-opacity:1;"/>
</svg>
