<svg width="24" height="24" viewBox="0 0 24 24" fill="none" xmlns="http://www.w3.org/2000/svg">
<path d="M12 8C9.79 8 8 9.79 8 12C8 14.21 9.79 16 12 16C14.21 16 16 14.21 16 12C16 9.79 14.21 8 12 8ZM12 14.5C10.62 14.5 9.5 13.38 9.5 12C9.5 10.62 10.62 9.5 12 9.5C13.38 9.5 14.5 10.62 14.5 12C14.5 13.38 13.38 14.5 12 14.5ZM20.94 11C20.48 6.83 17.17 3.52 13 3.06V1H11V3.06C6.83 3.52 3.52 6.83 3.06 11H1V13H3.06C3.52 17.17 6.83 20.48 11 20.94V23H13V20.94C17.17 20.48 20.48 17.17 20.94 13H23V11H20.94ZM12 19C8.13 19 5 15.87 5 12C5 8.13 8.13 5 12 5C15.87 5 19 8.13 19 12C19 15.87 15.87 19 12 19Z" fill="currentColor"/>
</svg>
