<svg width="19" height="25" viewBox="0 0 19 25" fill="none" xmlns="http://www.w3.org/2000/svg">
<path d="M9.17647 0C5.35294 0 2.29412 3.05882 2.29412 6.88235V9.94118C0.994118 9.94118 0 10.9353 0 12.2353V22.1765C0 23.4765 0.994118 24.4706 2.29412 24.4706H16.0588C17.3588 24.4706 18.3529 23.4765 18.3529 22.1765V12.2353C18.3529 10.9353 17.3588 9.94118 16.0588 9.94118V6.88235C16.0588 3.05882 13 0 9.17647 0ZM16.8235 12.2353V22.1765C16.8235 22.6353 16.5176 22.9412 16.0588 22.9412H2.29412C1.83529 22.9412 1.52941 22.6353 1.52941 22.1765V12.2353C1.52941 11.7765 1.83529 11.4706 2.29412 11.4706H3.05882H15.2941H16.0588C16.5176 11.4706 16.8235 11.7765 16.8235 12.2353ZM3.82353 9.94118V6.88235C3.82353 3.9 6.19412 1.52941 9.17647 1.52941C12.1588 1.52941 14.5294 3.9 14.5294 6.88235V9.94118H3.82353Z" fill="#008150" style="fill:#008150;fill:color(display-p3 0.0000 0.5042 0.3129);fill-opacity:1;"/>
<path d="M9.17644 13.7646C7.87644 13.7646 6.88232 14.7588 6.88232 16.0588C6.88232 17.0529 7.49409 17.8941 8.41174 18.1999V19.8823C8.41174 20.3411 8.71762 20.647 9.17644 20.647C9.63527 20.647 9.94115 20.3411 9.94115 19.8823V18.1999C10.8588 17.8941 11.4706 17.0529 11.4706 16.0588C11.4706 14.7588 10.4764 13.7646 9.17644 13.7646ZM9.17644 16.8235C8.71762 16.8235 8.41174 16.5176 8.41174 16.0588C8.41174 15.5999 8.71762 15.2941 9.17644 15.2941C9.63527 15.2941 9.94115 15.5999 9.94115 16.0588C9.94115 16.5176 9.63527 16.8235 9.17644 16.8235Z" fill="#008150" style="fill:#008150;fill:color(display-p3 0.0000 0.5042 0.3129);fill-opacity:1;"/>
</svg>
