<svg width="22" height="22" viewBox="0 0 22 22" fill="none" xmlns="http://www.w3.org/2000/svg">
<g clip-path="url(#clip0_1_1456)">
<path d="M10.9635 20.1358H2.74085C2.23652 20.1358 1.82725 19.7265 1.82725 19.2222V2.77702C1.82725 2.2727 2.23657 1.86342 2.74085 1.86342H10.9635C11.4687 1.86342 11.8771 1.45505 11.8771 0.94982C11.8771 0.444594 11.4687 0.0361328 10.9635 0.0361328H2.74085C1.22972 0.0361328 0 1.2659 0 2.77702V19.2222C0 20.7333 1.22972 21.963 2.74085 21.963H10.9635C11.4687 21.963 11.8771 21.5547 11.8771 21.0494C11.8771 20.5442 11.4687 20.1358 10.9635 20.1358Z" fill="#E75050" style="fill:#E75050;fill:color(display-p3 0.9042 0.3127 0.3127);fill-opacity:1;"/>
<path d="M21.7278 10.3493L16.173 4.86752C15.8149 4.51303 15.2357 4.51762 14.8812 4.87667C14.5267 5.23572 14.5303 5.81403 14.8903 6.16853L18.86 10.0861H8.22268C7.71746 10.0861 7.30908 10.4945 7.30908 10.9997C7.30908 11.5049 7.71746 11.9134 8.22268 11.9134H18.86L14.8903 15.831C14.5304 16.1854 14.5276 16.7638 14.8812 17.1228C15.0602 17.3037 15.2959 17.3951 15.5317 17.3951C15.7637 17.3951 15.9958 17.3074 16.173 17.1319L21.7278 11.6502C21.9014 11.4784 22.0001 11.2445 22.0001 10.9997C22.0001 10.7549 21.9023 10.5219 21.7278 10.3493Z" fill="#E75050" style="fill:#E75050;fill:color(display-p3 0.9042 0.3127 0.3127);fill-opacity:1;"/>
</g>
<defs>
<clipPath id="clip0_1_1456">
<rect width="22" height="22" fill="white" style="fill:white;fill-opacity:1;"/>
</clipPath>
</defs>
</svg>
