<svg width="43" height="34" viewBox="0 0 43 34" fill="none" xmlns="http://www.w3.org/2000/svg">
<g clip-path="url(#clip0_1_9999)">
<path d="M38.0251 18.6071C36.0878 16.9187 33.6059 15.9893 31.0353 15.9893C30.4677 15.9893 29.901 16.036 29.343 16.1252C28.6387 17.9581 27.33 19.4305 25.6836 20.3491C27.1737 20.8639 28.5646 21.66 29.7725 22.7128C31.3786 24.1142 32.5821 25.8882 33.2916 27.8736C36.2588 27.4939 39.0615 26.3688 41.4698 24.5891C41.0217 22.2799 39.8178 20.169 38.0251 18.6071Z" fill="#0E6953" style="fill:#0E6953;fill:color(display-p3 0.0549 0.4118 0.3255);fill-opacity:1;"/>
<path d="M12.251 14.2558C12.6527 14.2558 13.051 14.2147 13.4441 14.142C13.4034 13.8134 13.3809 13.477 13.3809 13.1389C13.3809 9.77819 15.3693 6.82572 18.4044 5.5404C17.4918 2.94942 15.0615 1.19482 12.251 1.19482C8.65131 1.19482 5.72266 4.12565 5.72266 7.72748C5.72266 11.3272 8.65088 14.2558 12.251 14.2558Z" fill="#0E6953" style="fill:#0E6953;fill:color(display-p3 0.0549 0.4118 0.3255);fill-opacity:1;"/>
<path d="M29.9044 13.1389C29.9044 13.4757 29.8819 13.8112 29.8412 14.1428C30.2295 14.2151 30.6278 14.2558 31.0347 14.2558C34.6366 14.2558 37.5674 11.3272 37.5674 7.72748C37.5674 4.12521 34.6366 1.19482 31.0347 1.19482C28.226 1.19482 25.7965 2.94899 24.8848 5.53997C27.916 6.82313 29.9044 9.77646 29.9044 13.1389Z" fill="#0E6953" style="fill:#0E6953;fill:color(display-p3 0.0549 0.4118 0.3255);fill-opacity:1;"/>
<path d="M19.7234 6.89563C16.964 7.74544 15.1133 10.2542 15.1133 13.1391C15.1133 13.6335 15.1696 14.1231 15.2808 14.5941C15.3168 14.7686 15.3596 14.9279 15.4129 15.0915C16.2722 17.8319 18.7762 19.667 21.6459 19.667C24.5136 19.667 27.0154 17.8319 27.8721 15.1006C27.9284 14.927 27.9712 14.7682 28.0011 14.6192C28.1184 14.1222 28.1743 13.6331 28.1743 13.1391C28.1743 10.2533 26.3253 7.74501 23.5728 6.89736C22.9577 6.70385 22.3109 6.60645 21.6459 6.60645C20.9801 6.60645 20.3338 6.70342 19.7234 6.89563Z" fill="#F7D44C" style="fill:#F7D44C;fill:color(display-p3 0.9686 0.8314 0.2980);fill-opacity:1;"/>
<path d="M10.0013 27.8728C11.2788 24.3091 14.1265 21.5653 17.6136 20.3518C15.9634 19.4336 14.6508 17.96 13.943 16.1218C13.3858 16.0326 12.8187 15.9863 12.2507 15.9863C7.17307 15.9863 2.78377 19.6505 1.82227 24.5853C4.23186 26.3671 7.03843 27.4962 10.0013 27.8728Z" fill="#0E6953" style="fill:#0E6953;fill:color(display-p3 0.0549 0.4118 0.3255);fill-opacity:1;"/>
<path d="M32.0834 30.004C32.0206 29.6828 31.9496 29.3659 31.8604 29.062C31.292 27.1065 30.176 25.3623 28.6326 24.0155C26.6954 22.3276 24.2135 21.3977 21.6433 21.3977C16.9288 21.3977 12.7239 24.5584 11.4183 29.0841C11.3304 29.391 11.2624 29.6966 11.2031 30.0001C14.2426 32.2487 17.8397 33.437 21.6433 33.437C25.4481 33.437 29.0452 32.25 32.0834 30.004Z" fill="#F7D44C" style="fill:#F7D44C;fill:color(display-p3 0.9686 0.8314 0.2980);fill-opacity:1;"/>
</g>
<defs>
<clipPath id="clip0_1_9999">
<rect width="42.5698" height="33.19" fill="white" style="fill:white;fill-opacity:1;"/>
</clipPath>
</defs>
</svg>
