<svg width="64" height="64" viewBox="0 0 64 64" fill="none" xmlns="http://www.w3.org/2000/svg">
<rect width="64" height="64" rx="32" fill="white" style="fill:white;fill-opacity:1;"/>
<rect x="1.5" y="1.5" width="61" height="61" rx="30.5" stroke="#0B5442" stroke-opacity="0.06" style="stroke:#0B5442;stroke:color(display-p3 0.0435 0.3286 0.2587);stroke-opacity:0.06;" stroke-width="3"/>
<path d="M39.4467 43H24.5533C23.6 43 22.7067 42.6267 22.04 41.96C21.3667 41.2867 21 40.4 21 39.4467V24.5533C21 23.6 21.3733 22.7067 22.04 22.04C22.7133 21.3667 23.6 21 24.5533 21H39.4467C40.4 21 41.2933 21.3733 41.96 22.04C42.6333 22.7133 43 23.6 43 24.5533V39.4467C43 40.4 42.6267 41.2933 41.96 41.96C41.2867 42.6333 40.4 43 39.4467 43ZM24.5533 22.42C23.98 22.42 23.4467 22.64 23.0467 23.0467C22.64 23.4467 22.42 23.9867 22.42 24.5533V39.4467C22.42 40.02 22.64 40.5533 23.0467 40.9533C23.4467 41.36 23.9867 41.58 24.5533 41.58H39.4467C40.02 41.58 40.5533 41.36 40.9533 40.9533C41.36 40.5533 41.58 40.0133 41.58 39.4467V24.5533C41.58 23.98 41.36 23.4467 40.9533 23.0467C40.5533 22.64 40.0133 22.42 39.4467 22.42H24.5533Z" fill="#212121" style="fill:#212121;fill:color(display-p3 0.1294 0.1294 0.1294);fill-opacity:1;"/>
<path d="M37.8424 34H26.1576C25.5845 34 25.0383 33.7724 24.6338 33.3517C24.2292 32.9379 24 32.3724 24 31.7931V26.2069C24 25.6276 24.2292 25.0552 24.6338 24.6483C25.0383 24.2345 25.5845 24 26.1576 24H37.8424C38.4088 24 38.9684 24.2345 39.3662 24.6483C39.764 25.0621 40 25.6276 40 26.2069V31.7931C40 32.3724 39.7708 32.9448 39.3662 33.3517C38.9617 33.7586 38.4088 34 37.8424 34ZM26.1576 25.469C25.9688 25.469 25.78 25.5448 25.6519 25.6828C25.5171 25.8207 25.4429 26.0069 25.4429 26.2V31.7862C25.4429 31.9793 25.5171 32.1724 25.6519 32.3034C25.7868 32.4414 25.9688 32.5172 26.1576 32.5172H37.8424C38.0312 32.5172 38.22 32.4414 38.3481 32.3034C38.4829 32.1655 38.5571 31.9793 38.5571 31.7862V26.2069C38.5571 26.0138 38.4829 25.8207 38.3481 25.6897C38.2132 25.5517 38.0312 25.4759 37.8424 25.4759H26.1576V25.469Z" fill="#212121" style="fill:#212121;fill:color(display-p3 0.1294 0.1294 0.1294);fill-opacity:1;"/>
<path d="M39.2865 36.9267H24.7133C24.32 36.9267 24 36.6067 24 36.2133C24 35.82 24.32 35.5 24.7133 35.5H39.2865C39.6798 35.5 39.9998 35.82 39.9998 36.2133C39.9998 36.6067 39.6798 36.9267 39.2865 36.9267Z" fill="#212121" style="fill:#212121;fill:color(display-p3 0.1294 0.1294 0.1294);fill-opacity:1;"/>
<path d="M29.6933 39.9267H24.7133C24.32 39.9267 24 39.6067 24 39.2133C24 38.82 24.32 38.5 24.7133 38.5H29.6933C30.0867 38.5 30.4067 38.82 30.4067 39.2133C30.4067 39.6067 30.0867 39.9267 29.6933 39.9267Z" fill="#212121" style="fill:#212121;fill:color(display-p3 0.1294 0.1294 0.1294);fill-opacity:1;"/>
</svg>
