<svg width="64" height="64" viewBox="0 0 64 64" fill="none" xmlns="http://www.w3.org/2000/svg">
<rect width="64" height="64" rx="32" fill="white" style="fill:white;fill-opacity:1;"/>
<rect x="1.5" y="1.5" width="61" height="61" rx="30.5" stroke="#0B5442" stroke-opacity="0.06" style="stroke:#0B5442;stroke:color(display-p3 0.0435 0.3286 0.2587);stroke-opacity:0.06;" stroke-width="3"/>
<path d="M23.75 38.856C23.7425 36.5171 24.7274 34.2836 26.46 32.7163L26.4619 32.7153C26.8907 32.3253 27.5304 32.2726 28.0166 32.5854L28.0176 32.5864C29.1457 33.3094 30.5335 33.7309 32.0312 33.731C33.5246 33.731 34.9188 33.3098 36.0449 32.5806L36.0439 32.5796C36.5351 32.2672 37.1703 32.3227 37.5977 32.7114H37.5986C39.3321 34.2832 40.3172 36.5134 40.3135 38.8569V39.9536C40.3133 40.6693 39.7323 41.2494 39.0127 41.2495H25.0508C24.3311 41.2495 23.7502 40.6693 23.75 39.9536V38.856Z" stroke="#212121" style="stroke:#212121;stroke:color(display-p3 0.1294 0.1294 0.1294);stroke-opacity:1;" stroke-width="1.5"/>
<path d="M32.0322 21.75C34.4222 21.7502 36.3594 23.6881 36.3594 26.0781C36.3592 28.468 34.4221 30.4051 32.0322 30.4053C29.6422 30.4053 27.7043 28.4681 27.7041 26.0781C27.7041 23.688 29.6421 21.75 32.0322 21.75Z" stroke="#212121" style="stroke:#212121;stroke:color(display-p3 0.1294 0.1294 0.1294);stroke-opacity:1;" stroke-width="1.5"/>
</svg>
