<svg width="22" height="22" viewBox="0 0 22 22" fill="none" xmlns="http://www.w3.org/2000/svg">
<g clip-path="url(#clip0_1_1441)">
<path d="M21.9134 19.9227L20.4031 15.5273C21.1296 14.0589 21.5137 12.4222 21.5163 10.7753C21.5207 7.93925 20.4234 5.25762 18.4265 3.22451C16.4293 1.19102 13.7678 0.0464222 10.9325 0.00143399C9.44707 -0.0224136 8.00564 0.251297 6.64611 0.814057C5.33484 1.35688 4.15892 2.14316 3.15104 3.15104C2.14313 4.15891 1.35684 5.33483 0.814062 6.64611C0.251302 8.00564 -0.022108 9.44779 0.0013959 10.9325C0.0462982 13.7678 1.19094 16.4293 3.22443 18.4265C5.25359 20.4195 7.9283 21.5165 10.7582 21.5164C10.7638 21.5164 10.7696 21.5164 10.7751 21.5164C12.422 21.5139 14.0588 21.1297 15.5272 20.4033L19.9226 21.9136C20.0917 21.9717 20.2649 22 20.4363 22C20.8433 22 21.2393 21.84 21.5396 21.5397C21.9662 21.1131 22.1096 20.4935 21.9134 19.9227ZM20.6173 20.6174C20.574 20.6607 20.4814 20.7263 20.3464 20.68L15.6889 19.0796C15.62 19.056 15.5484 19.0442 15.4769 19.0442C15.3717 19.0442 15.2669 19.0697 15.172 19.1199C13.8259 19.832 12.3048 20.2097 10.7731 20.212C5.63618 20.2203 1.38692 16.048 1.30554 10.9119C1.26459 8.32777 2.24754 5.89914 4.07332 4.07336C5.8991 2.24762 8.32701 1.26484 10.9118 1.3057C16.0479 1.38713 20.2199 5.63428 20.2119 10.7732C20.2095 12.305 19.8319 13.8261 19.1198 15.1721C19.0355 15.3314 19.0209 15.5185 19.0795 15.689L20.6799 20.3465C20.7263 20.4814 20.6606 20.5742 20.6173 20.6174Z" fill="#0C178E" style="fill:#0C178E;fill:color(display-p3 0.0489 0.0896 0.5583);fill-opacity:1;"/>
<path d="M10.6522 15.5869C10.3111 15.5869 9.98429 15.8869 10.0001 16.2391C10.0159 16.5924 10.2866 16.8913 10.6522 16.8913C10.9934 16.8913 11.3202 16.5913 11.3044 16.2391C11.2886 15.8857 11.0179 15.5869 10.6522 15.5869Z" fill="#0C178E" style="fill:#0C178E;fill:color(display-p3 0.0489 0.0896 0.5583);fill-opacity:1;"/>
<path d="M10.6525 5.48633C8.86332 5.48633 7.40771 6.94193 7.40771 8.73111C7.40771 9.09127 7.69973 9.38329 8.05989 9.38329C8.42006 9.38329 8.71207 9.09127 8.71207 8.73111C8.71207 7.66119 9.58257 6.79068 10.6525 6.79068C11.7224 6.79068 12.5929 7.66119 12.5929 8.73111C12.5929 9.80103 11.7224 10.6715 10.6525 10.6715C10.2923 10.6715 10.0003 10.9635 10.0003 11.3237V13.9837C10.0003 14.3438 10.2923 14.6359 10.6525 14.6359C11.0127 14.6359 11.3047 14.3439 11.3047 13.9836V11.91C12.7823 11.6073 13.8973 10.297 13.8973 8.73111C13.8973 6.94193 12.4417 5.48633 10.6525 5.48633Z" fill="#0C178E" style="fill:#0C178E;fill:color(display-p3 0.0489 0.0896 0.5583);fill-opacity:1;"/>
</g>
<defs>
<clipPath id="clip0_1_1441">
<rect width="22" height="22" fill="white" style="fill:white;fill-opacity:1;"/>
</clipPath>
</defs>
</svg>
