<svg width="26" height="26" viewBox="0 0 26 26" fill="none" xmlns="http://www.w3.org/2000/svg">
<path d="M21.0659 24.9163H4.93148C3.8987 24.9163 2.93092 24.5119 2.2087 23.7897C1.47925 23.0602 1.08203 22.0997 1.08203 21.0669V4.93245C1.08203 3.89967 1.48648 2.9319 2.2087 2.20967C2.93814 1.48023 3.8987 1.08301 4.93148 1.08301H21.0659C22.0987 1.08301 23.0665 1.48745 23.7887 2.20967C24.5181 2.93912 24.9154 3.89967 24.9154 4.93245V21.0669C24.9154 22.0997 24.5109 23.0674 23.7887 23.7897C23.0593 24.5191 22.0987 24.9163 21.0659 24.9163ZM4.93148 2.62134C4.31036 2.62134 3.73259 2.85967 3.29925 3.30023C2.8587 3.73356 2.62036 4.31856 2.62036 4.93245V21.0669C2.62036 21.688 2.8587 22.2658 3.29925 22.6991C3.73259 23.1397 4.31759 23.378 4.93148 23.378H21.0659C21.687 23.378 22.2648 23.1397 22.6981 22.6991C23.1387 22.2658 23.377 21.6808 23.377 21.0669V4.93245C23.377 4.31134 23.1387 3.73356 22.6981 3.30023C22.2648 2.85967 21.6798 2.62134 21.0659 2.62134H4.93148Z" fill="#00578B" style="fill:#00578B;fill:color(display-p3 0.0000 0.3412 0.5451);fill-opacity:1;"/>
<path d="M19.328 15.1663H6.66944C6.04856 15.1663 5.45691 14.9198 5.01864 14.464C4.58038 14.0158 4.33203 13.4031 4.33203 12.7755V6.72381C4.33203 6.09623 4.58038 5.47611 5.01864 5.03531C5.45691 4.58703 6.04856 4.33301 6.66944 4.33301H19.328C19.9415 4.33301 20.5478 4.58703 20.9788 5.03531C21.4097 5.48358 21.6654 6.09623 21.6654 6.72381V12.7755C21.6654 13.4031 21.417 14.0232 20.9788 14.464C20.5405 14.9048 19.9415 15.1663 19.328 15.1663ZM6.66944 5.92439C6.46492 5.92439 6.26039 6.00657 6.12161 6.156C5.97552 6.30542 5.89517 6.50715 5.89517 6.71634V12.7681C5.89517 12.9773 5.97552 13.1865 6.12161 13.3284C6.2677 13.4778 6.46492 13.56 6.66944 13.56H19.328C19.5325 13.56 19.737 13.4778 19.8758 13.3284C20.0219 13.179 20.1022 12.9773 20.1022 12.7681V6.72381C20.1022 6.51462 20.0219 6.30542 19.8758 6.16347C19.7297 6.01404 19.5325 5.93186 19.328 5.93186H6.66944V5.92439Z" fill="#00578B" style="fill:#00578B;fill:color(display-p3 0.0000 0.3412 0.5451);fill-opacity:1;"/>
<path d="M20.8924 18.3375H5.10481C4.6787 18.3375 4.33203 17.9909 4.33203 17.5648C4.33203 17.1387 4.6787 16.792 5.10481 16.792H20.8924C21.3185 16.792 21.6652 17.1387 21.6652 17.5648C21.6652 17.9909 21.3185 18.3375 20.8924 18.3375Z" fill="#00578B" style="fill:#00578B;fill:color(display-p3 0.0000 0.3412 0.5451);fill-opacity:1;"/>
<path d="M10.4998 21.5875H5.10481C4.6787 21.5875 4.33203 21.2409 4.33203 20.8148C4.33203 20.3887 4.6787 20.042 5.10481 20.042H10.4998C10.9259 20.042 11.2726 20.3887 11.2726 20.8148C11.2726 21.2409 10.9259 21.5875 10.4998 21.5875Z" fill="#00578B" style="fill:#00578B;fill:color(display-p3 0.0000 0.3412 0.5451);fill-opacity:1;"/>
</svg>
