<svg width="92" height="92" viewBox="0 0 92 92" fill="none" xmlns="http://www.w3.org/2000/svg">
<path d="M40.8647 70.1319L40.3734 80.9652H20.5298C20.7582 75.6415 18.8146 70.4532 15.1443 66.5899C9.41048 60.6304 4.90548 54.6312 2.49036 48.5288C2.06265 47.4336 1.85402 46.2648 1.87666 45.089V26.7545C1.89516 25.0887 3.06828 23.6593 4.69856 23.3163C6.48366 23.0682 8.14218 24.2849 8.44161 26.062L11.0417 43.059C12.8366 47.796 16.1237 51.8207 20.4071 54.5253C21.5133 55.2831 22.7419 56.1227 24.1543 55.222C24.8593 54.3043 24.7719 53.0055 23.9503 52.1905L18.1554 47.6037C16.3031 46.4075 15.4671 44.1287 16.1061 42.0184C16.3832 40.8723 17.5368 40.1678 18.6829 40.4448C18.9502 40.5095 19.2026 40.6252 19.4261 40.7856L31.0976 49.1208C33.1568 50.2652 34.9231 51.8704 36.2584 53.8111C39.5922 58.5756 41.2154 64.3277 40.8647 70.1319Z" fill="#FFC278" style="fill:#FFC278;fill:color(display-p3 1.0000 0.7623 0.4717);fill-opacity:1;"/>
<path d="M18.8286 80.3672H40.9895C41.7741 80.3672 42.4099 81.0033 42.4099 81.7876V90.4223C42.4099 91.2068 41.7738 91.8427 40.9895 91.8427H18.8286C18.0441 91.8427 17.4082 91.2066 17.4082 90.4223V81.7876C17.4082 81.003 18.0443 80.3672 18.8286 80.3672Z" fill="#0E6953" style="fill:#0E6953;fill:color(display-p3 0.0549 0.4118 0.3255);fill-opacity:1;"/>
<path d="M37.5543 87.8507C38.5184 87.8507 39.2999 87.0692 39.2999 86.105C39.2999 85.1409 38.5184 84.3594 37.5543 84.3594C36.5902 84.3594 35.8086 85.1409 35.8086 86.105C35.8086 87.0692 36.5902 87.8507 37.5543 87.8507Z" fill="#828A9E" style="fill:#828A9E;fill:color(display-p3 0.5098 0.5412 0.6196);fill-opacity:1;"/>
<path d="M51.1298 70.1338L51.6211 80.9672H71.4646C71.2363 75.6435 73.1799 70.4552 76.8501 66.5919C82.584 60.6323 87.089 54.6331 89.5041 48.5307C89.9318 47.4353 90.1405 46.2668 90.1178 45.091V26.7565C90.0993 25.0907 88.9262 23.6612 87.2959 23.3182C85.5108 23.0702 83.8523 24.2868 83.5529 26.0639L80.9459 43.061C79.1528 47.797 75.8681 51.8215 71.5873 54.5272C70.4812 55.2851 69.2525 56.1247 67.8401 55.224C67.1352 54.3062 67.2225 53.0075 68.0441 52.1925L73.8391 47.6057C75.6914 46.4094 76.5273 44.1306 75.8883 42.0203C75.6113 40.8742 74.4577 40.1697 73.3116 40.4467C73.0443 40.5115 72.7918 40.6271 72.5684 40.7876L60.8981 49.1228C58.8389 50.2669 57.0725 51.8723 55.7373 53.8128C52.4032 58.5773 50.7795 64.3294 51.1298 70.1338Z" fill="#FFC278" style="fill:#FFC278;fill:color(display-p3 1.0000 0.7623 0.4717);fill-opacity:1;"/>
<path d="M50.3205 80.3672H72.7835C73.5785 80.3672 74.2231 81.0118 74.2231 81.8069V90.5598C74.2231 91.3548 73.5785 91.9995 72.7835 91.9995H50.3205C49.5255 91.9995 48.8809 91.3548 48.8809 90.5598V81.8069C48.8809 81.0116 49.5255 80.3672 50.3205 80.3672Z" fill="#0E6953" style="fill:#0E6953;fill:color(display-p3 0.0549 0.4118 0.3255);fill-opacity:1;"/>
<path d="M53.8118 88.1313C54.7886 88.1313 55.5806 87.3394 55.5806 86.3625C55.5806 85.3857 54.7886 84.5938 53.8118 84.5938C52.8349 84.5938 52.043 85.3857 52.043 86.3625C52.043 87.3394 52.8349 88.1313 53.8118 88.1313Z" fill="#828A9E" style="fill:#828A9E;fill:color(display-p3 0.5098 0.5412 0.6196);fill-opacity:1;"/>
<g clip-path="url(#clip0_1_2483)">
<mask id="mask0_1_2483" style="mask-type:luminance" maskUnits="userSpaceOnUse" x="24" y="5" width="42" height="41">
<path d="M65.8996 5.02539H24.9619V45.9631H65.8996V5.02539Z" fill="white" style="fill:white;fill-opacity:1;"/>
</mask>
<g mask="url(#mask0_1_2483)">
<path d="M53.3488 20.1303L42.6207 30.8584L37.5137 25.7514" stroke="#0E6953" style="stroke:#0E6953;stroke:color(display-p3 0.0549 0.4118 0.3255);stroke-opacity:1;" stroke-width="3" stroke-miterlimit="10" stroke-linecap="round" stroke-linejoin="round"/>
<mask id="mask1_1_2483" style="mask-type:luminance" maskUnits="userSpaceOnUse" x="24" y="5" width="42" height="41">
<path d="M24.9619 5.02519H65.8996V45.9629H24.9619V5.02519Z" fill="white" style="fill:white;fill-opacity:1;"/>
</mask>
<g mask="url(#mask1_1_2483)">
<path d="M64.3 25.4936C64.3 35.915 55.8517 44.3633 45.4303 44.3633C35.0088 44.3633 26.5605 35.915 26.5605 25.4936C26.5605 15.0721 35.0088 6.62384 45.4303 6.62384C55.8517 6.62384 64.3 15.0721 64.3 25.4936Z" stroke="#0E6953" style="stroke:#0E6953;stroke:color(display-p3 0.0549 0.4118 0.3255);stroke-opacity:1;" stroke-width="3" stroke-miterlimit="10" stroke-linecap="round" stroke-linejoin="round"/>
</g>
</g>
</g>
<defs>
<clipPath id="clip0_1_2483">
<rect width="40.9377" height="40.9377" fill="white" style="fill:white;fill-opacity:1;" transform="translate(24.9619 5.02539)"/>
</clipPath>
</defs>
</svg>
