<svg width="150" height="170" viewBox="0 0 150 170" fill="none" xmlns="http://www.w3.org/2000/svg">
<g clip-path="url(#clip0_1_10104)">
<rect width="150" height="170" rx="60" fill="white" style="fill:white;fill-opacity:1;"/>
<path d="M0 5.97656C0 2.939 2.46243 0.476562 5.5 0.476562H144.5C147.538 0.476562 150 2.939 150 5.97656C150 9.01413 147.538 11.4766 144.5 11.4766H5.5C2.46244 11.4766 0 9.01413 0 5.97656Z" fill="#FDF4D1" style="fill:#FDF4D1;fill:color(display-p3 0.9922 0.9568 0.8192);fill-opacity:1;"/>
<rect y="23.337" width="31.25" height="40.9722" rx="5.55555" fill="#ECF4F2" style="fill:#ECF4F2;fill:color(display-p3 0.9258 0.9570 0.9495);fill-opacity:1;"/>
<rect x="39.584" y="23.337" width="31.25" height="40.9722" rx="5.55555" fill="#0E6953" style="fill:#0E6953;fill:color(display-p3 0.0549 0.4118 0.3255);fill-opacity:1;"/>
<path d="M59.6393 35.896H50.7904C49.8615 35.896 48.9706 36.265 48.3137 36.9219C47.6568 37.5788 47.2878 38.4697 47.2878 39.3987V48.2475C47.2843 48.2595 47.2843 48.2723 47.2878 48.2844C47.2975 49.2069 47.6708 50.0884 48.3266 50.7373C48.9824 51.3863 49.8678 51.7502 50.7904 51.7502H59.6393C60.5581 51.7483 61.4394 51.3855 62.0932 50.74C62.747 50.0944 63.121 49.2178 63.1346 48.2991V39.3987C63.1346 38.471 62.7665 37.5812 62.1113 36.9245C61.456 36.2678 60.567 35.8979 59.6393 35.896ZM62.0358 46.7727L58.9535 43.2479C58.7576 43.0394 58.5212 42.8733 58.2586 42.7597C57.9961 42.6461 57.7131 42.5875 57.4271 42.5875C57.141 42.5875 56.858 42.6461 56.5955 42.7597C56.333 42.8733 56.0965 43.0394 55.9006 43.2479L53.7843 45.6666L53.0911 44.8259C52.9001 44.5968 52.6611 44.4125 52.3909 44.286C52.1208 44.1595 51.8261 44.0939 51.5278 44.0939C51.2295 44.0939 50.9349 44.1595 50.6647 44.286C50.3946 44.4125 50.1555 44.5968 49.9645 44.8259L48.3939 46.7211V39.3987C48.3958 38.7637 48.6489 38.1552 49.098 37.7062C49.547 37.2572 50.1554 37.004 50.7904 37.0021H59.6393C60.2743 37.004 60.8827 37.2572 61.3317 37.7062C61.7808 38.1552 62.0339 38.7637 62.0358 39.3987V46.7727Z" fill="white" style="fill:white;fill-opacity:1;"/>
<rect x="79.166" y="23.337" width="31.25" height="40.9722" rx="5.55555" fill="#ECF4F2" style="fill:#ECF4F2;fill:color(display-p3 0.9258 0.9570 0.9495);fill-opacity:1;"/>
<rect x="118.75" y="23.337" width="31.25" height="40.9722" rx="5.55555" fill="#ECF4F2" style="fill:#ECF4F2;fill:color(display-p3 0.9258 0.9570 0.9495);fill-opacity:1;"/>
<rect y="76.1697" width="31.25" height="40.9722" rx="5.55555" fill="#ECF4F2" style="fill:#ECF4F2;fill:color(display-p3 0.9258 0.9570 0.9495);fill-opacity:1;"/>
<rect x="39.584" y="76.1697" width="31.25" height="40.9722" rx="5.55555" fill="#ECF4F2" style="fill:#ECF4F2;fill:color(display-p3 0.9258 0.9570 0.9495);fill-opacity:1;"/>
<rect x="79.166" y="76.1697" width="31.25" height="40.9722" rx="5.55555" fill="#ECF4F2" style="fill:#ECF4F2;fill:color(display-p3 0.9258 0.9570 0.9495);fill-opacity:1;"/>
<rect x="118.75" y="76.1697" width="31.25" height="40.9722" rx="5.55555" fill="#ECF4F2" style="fill:#ECF4F2;fill:color(display-p3 0.9258 0.9570 0.9495);fill-opacity:1;"/>
<rect y="129.002" width="31.25" height="40.9722" rx="5.55555" fill="#ECF4F2" style="fill:#ECF4F2;fill:color(display-p3 0.9258 0.9570 0.9495);fill-opacity:1;"/>
<rect x="39.584" y="129.002" width="31.25" height="40.9722" rx="5.55555" fill="#ECF4F2" style="fill:#ECF4F2;fill:color(display-p3 0.9258 0.9570 0.9495);fill-opacity:1;"/>
<rect x="79.166" y="129.002" width="31.25" height="40.9722" rx="5.55555" fill="#ECF4F2" style="fill:#ECF4F2;fill:color(display-p3 0.9258 0.9570 0.9495);fill-opacity:1;"/>
<rect x="118.75" y="129.002" width="31.25" height="40.9722" rx="5.55555" fill="#ECF4F2" style="fill:#ECF4F2;fill:color(display-p3 0.9258 0.9570 0.9495);fill-opacity:1;"/>
</g>
<defs>
<clipPath id="clip0_1_10104">
<rect width="150" height="170" rx="60" fill="white" style="fill:white;fill-opacity:1;"/>
</clipPath>
</defs>
</svg>
