<svg width="150" height="170" viewBox="0 0 150 170" fill="none" xmlns="http://www.w3.org/2000/svg">
<g clip-path="url(#clip0_1_10127)">
<g filter="url(#filter0_d_1_10127)">
<rect width="150" height="170" rx="60" fill="white" style="fill:white;fill-opacity:1;"/>
</g>
<ellipse cx="19" cy="95.6871" rx="10.5" ry="10.5778" fill="#FFD894" style="fill:#FFD894;fill:color(display-p3 1.0000 0.8473 0.5800);fill-opacity:1;"/>
<circle cx="113.75" cy="34.5" r="10.5" fill="#FFD894" style="fill:#FFD894;fill:color(display-p3 1.0000 0.8473 0.5800);fill-opacity:1;"/>
<rect x="46" y="29" width="54" height="16" rx="8" fill="#0E6953" style="fill:#0E6953;fill:color(display-p3 0.0549 0.4118 0.3255);fill-opacity:1;"/>
<rect x="-22" y="51" width="122" height="28" rx="14" fill="#0E6953" style="fill:#0E6953;fill:color(display-p3 0.0549 0.4118 0.3255);fill-opacity:1;"/>
<rect width="45" height="16" rx="8" transform="matrix(-1 0 0 1 80 90)" fill="#ECF4F2" style="fill:#ECF4F2;fill:color(display-p3 0.9258 0.9570 0.9495);fill-opacity:1;"/>
<rect x="35" y="110" width="149" height="28" rx="14" fill="#ECF4F2" style="fill:#ECF4F2;fill:color(display-p3 0.9258 0.9570 0.9495);fill-opacity:1;"/>
<path d="M0 161.5C0 151.835 7.83502 144 17.5 144H132.5C142.165 144 150 151.835 150 161.5C150 171.165 142.165 179 132.5 179H17.5C7.83502 179 0 171.165 0 161.5Z" fill="#FDF4D1" style="fill:#FDF4D1;fill:color(display-p3 0.9922 0.9568 0.8192);fill-opacity:1;"/>
<path d="M0 -1.5C0 -11.165 7.83502 -19 17.5 -19H132.5C142.165 -19 150 -11.165 150 -1.5C150 8.16498 142.165 16 132.5 16H17.5C7.83502 16 0 8.16498 0 -1.5Z" fill="#FDF4D1" style="fill:#FDF4D1;fill:color(display-p3 0.9922 0.9568 0.8192);fill-opacity:1;"/>
</g>
<defs>
<filter id="filter0_d_1_10127" x="-15" y="-11.25" width="180" height="200" filterUnits="userSpaceOnUse" color-interpolation-filters="sRGB">
<feFlood flood-opacity="0" result="BackgroundImageFix"/>
<feColorMatrix in="SourceAlpha" type="matrix" values="0 0 0 0 0 0 0 0 0 0 0 0 0 0 0 0 0 0 127 0" result="hardAlpha"/>
<feOffset dy="3.75"/>
<feGaussianBlur stdDeviation="7.5"/>
<feComposite in2="hardAlpha" operator="out"/>
<feColorMatrix type="matrix" values="0 0 0 0 0 0 0 0 0 0 0 0 0 0 0 0 0 0 0.04 0"/>
<feBlend mode="normal" in2="BackgroundImageFix" result="effect1_dropShadow_1_10127"/>
<feBlend mode="normal" in="SourceGraphic" in2="effect1_dropShadow_1_10127" result="shape"/>
</filter>
<clipPath id="clip0_1_10127">
<rect width="150" height="170" rx="60" fill="white" style="fill:white;fill-opacity:1;"/>
</clipPath>
</defs>
</svg>
