<svg width="150" height="170" viewBox="0 0 150 170" fill="none" xmlns="http://www.w3.org/2000/svg">
<g clip-path="url(#clip0_1_10141)">
<rect width="150" height="170" rx="60" fill="white" style="fill:white;fill-opacity:1;"/>
<path d="M0 5.42188C0 2.38431 2.46243 -0.078125 5.5 -0.078125H144.5C147.538 -0.078125 150 2.38431 150 5.42188C150 8.45944 147.538 10.9219 144.5 10.9219H5.5C2.46244 10.9219 0 8.45944 0 5.42188Z" fill="#FDF4D1" style="fill:#FDF4D1;fill:color(display-p3 0.9922 0.9568 0.8192);fill-opacity:1;"/>
<rect y="22.7823" width="31.25" height="31.25" rx="5.55555" fill="#ECF4F2" style="fill:#ECF4F2;fill:color(display-p3 0.9258 0.9570 0.9495);fill-opacity:1;"/>
<rect x="39.584" y="22.7823" width="31.25" height="31.25" rx="5.55555" fill="#ECF4F2" style="fill:#ECF4F2;fill:color(display-p3 0.9258 0.9570 0.9495);fill-opacity:1;"/>
<rect x="79.166" y="22.7823" width="31.25" height="31.25" rx="5.55555" fill="#ECF4F2" style="fill:#ECF4F2;fill:color(display-p3 0.9258 0.9570 0.9495);fill-opacity:1;"/>
<rect x="118.75" y="22.7823" width="31.25" height="31.25" rx="5.55555" fill="#ECF4F2" style="fill:#ECF4F2;fill:color(display-p3 0.9258 0.9570 0.9495);fill-opacity:1;"/>
<rect y="65.8928" width="31.25" height="31.25" rx="5.55555" fill="#ECF4F2" style="fill:#ECF4F2;fill:color(display-p3 0.9258 0.9570 0.9495);fill-opacity:1;"/>
<rect x="39.584" y="65.8928" width="31.25" height="31.25" rx="5.55555" fill="#ECF4F2" style="fill:#ECF4F2;fill:color(display-p3 0.9258 0.9570 0.9495);fill-opacity:1;"/>
<rect x="79.166" y="65.8928" width="31.25" height="31.25" rx="5.55555" fill="#ECF4F2" style="fill:#ECF4F2;fill:color(display-p3 0.9258 0.9570 0.9495);fill-opacity:1;"/>
<rect x="118.75" y="65.8928" width="31.25" height="31.25" rx="5.55555" fill="#ECF4F2" style="fill:#ECF4F2;fill:color(display-p3 0.9258 0.9570 0.9495);fill-opacity:1;"/>
<rect y="109.003" width="31.25" height="31.25" rx="5.55555" fill="#ECF4F2" style="fill:#ECF4F2;fill:color(display-p3 0.9258 0.9570 0.9495);fill-opacity:1;"/>
<rect x="39.584" y="109.003" width="31.25" height="31.25" rx="5.55555" fill="#ECF4F2" style="fill:#ECF4F2;fill:color(display-p3 0.9258 0.9570 0.9495);fill-opacity:1;"/>
<rect x="79.166" y="109.003" width="31.25" height="31.25" rx="5.55555" fill="#ECF4F2" style="fill:#ECF4F2;fill:color(display-p3 0.9258 0.9570 0.9495);fill-opacity:1;"/>
<rect x="118.75" y="109.003" width="31.25" height="31.25" rx="5.55555" fill="#ECF4F2" style="fill:#ECF4F2;fill:color(display-p3 0.9258 0.9570 0.9495);fill-opacity:1;"/>
<rect y="152.114" width="31.25" height="31.25" rx="5.55555" fill="#ECF4F2" style="fill:#ECF4F2;fill:color(display-p3 0.9258 0.9570 0.9495);fill-opacity:1;"/>
<rect x="39.584" y="152.114" width="31.25" height="31.25" rx="5.55555" fill="#ECF4F2" style="fill:#ECF4F2;fill:color(display-p3 0.9258 0.9570 0.9495);fill-opacity:1;"/>
<rect x="79.166" y="152.114" width="31.25" height="31.25" rx="5.55555" fill="#ECF4F2" style="fill:#ECF4F2;fill:color(display-p3 0.9258 0.9570 0.9495);fill-opacity:1;"/>
<rect x="118.75" y="152.114" width="31.25" height="31.25" rx="5.55555" fill="#ECF4F2" style="fill:#ECF4F2;fill:color(display-p3 0.9258 0.9570 0.9495);fill-opacity:1;"/>
<rect x="36.0312" y="54.4844" width="39.1864" height="52" rx="6.32203" fill="#0E6953" style="fill:#0E6953;fill:color(display-p3 0.0549 0.4118 0.3255);fill-opacity:1;"/>
<rect x="36.0312" y="54.4844" width="39.1864" height="52" rx="6.32203" stroke="#F7D44C" style="stroke:#F7D44C;stroke:color(display-p3 0.9686 0.8314 0.2980);stroke-opacity:1;" stroke-width="2"/>
<g clip-path="url(#clip1_1_10141)">
<path d="M58.649 79.4402H51.1045C46.959 79.4402 44.0605 82.9581 44.0605 87.1092V87.7372C44.0605 88.7723 44.8467 89.6207 45.8818 89.6207H58.0442C57.8237 89.0042 57.7048 88.337 57.7048 87.6413C57.7048 84.3668 60.3684 81.7027 63.6434 81.7027C63.8584 81.7027 64.0677 81.7142 64.2714 81.7308C62.7606 80.3277 60.7304 79.4402 58.649 79.4402ZM54.8766 66.9976C51.7547 66.9976 49.2211 69.5312 49.2211 72.6531C49.2211 75.775 51.7547 78.3087 54.8766 78.3087C57.9986 78.3087 60.5322 75.775 60.5322 72.6531C60.5322 69.5312 57.9985 66.9976 54.8766 66.9976ZM63.643 82.8332C60.9879 82.8332 58.8358 84.9853 58.8358 87.6404C58.8358 90.2956 60.9883 92.4476 63.643 92.4476C66.2977 92.4476 68.4502 90.2956 68.4502 87.6409C68.4501 84.9857 66.2981 82.8332 63.643 82.8332ZM66.3655 86.7038L63.2832 89.7861C63.0632 90.0061 62.7034 90.0061 62.4834 89.7861L60.932 88.2347C60.712 88.0147 60.712 87.6549 60.932 87.4349L61.332 87.035C61.552 86.815 61.9118 86.815 62.1318 87.035L62.8829 87.7861L65.1654 85.5036C65.3854 85.2836 65.7452 85.2836 65.9652 85.5036L66.3651 85.9035C66.5854 86.1235 66.5854 86.4838 66.3655 86.7038Z" fill="white" style="fill:white;fill-opacity:1;"/>
</g>
</g>
<defs>
<clipPath id="clip0_1_10141">
<rect width="150" height="170" rx="60" fill="white" style="fill:white;fill-opacity:1;"/>
</clipPath>
<clipPath id="clip1_1_10141">
<rect width="25.45" height="25.45" fill="white" style="fill:white;fill-opacity:1;" transform="translate(43 67)"/>
</clipPath>
</defs>
</svg>
