<svg width="50" height="50" viewBox="0 0 50 50" fill="none" xmlns="http://www.w3.org/2000/svg">
<g clip-path="url(#clip0_1_2431)">
<path d="M29.1662 27.0833C25.7204 27.0833 22.9162 24.2792 22.9162 20.8333C22.9162 17.3875 25.7204 14.5833 29.1662 14.5833H33.3329V12.5V6.25C33.3329 2.80417 30.5287 0 27.0829 0H4.68704C4.00163 0 3.35996 0.3375 2.97038 0.902083C2.58288 1.46458 2.49538 2.18542 2.74121 2.825L17.8454 42.4083C18.1516 43.2167 18.9287 43.75 19.7912 43.75H27.0829C30.5287 43.75 33.3329 40.9458 33.3329 37.5V29.1667V27.0833H29.1662Z" fill="#E6B375" style="fill:#E6B375;fill:color(display-p3 0.9023 0.7019 0.4570);fill-opacity:1;"/>
<path d="M22.9163 20.834H9.61426L17.8476 42.4111C18.1518 43.2173 18.9288 43.7507 19.7913 43.7507H27.083C30.5288 43.7507 33.333 40.9465 33.333 37.5007V29.1673V27.084H29.1663C25.7205 27.084 22.9163 24.2798 22.9163 20.834Z" fill="#E6B375" style="fill:#E6B375;fill:color(display-p3 0.9023 0.7019 0.4570);fill-opacity:1;"/>
<path d="M38.7851 31.0915C38.008 30.7685 37.4997 30.0081 37.4997 29.1665V22.9165H29.1663C28.0163 22.9165 27.083 21.9831 27.083 20.8331C27.083 19.681 28.0163 18.7498 29.1663 18.7498H37.4997V12.4998C37.4997 11.6581 38.008 10.8956 38.7851 10.5748C39.5643 10.254 40.4601 10.431 41.0559 11.0269L49.3893 19.3602C50.2038 20.1748 50.2038 21.4915 49.3893 22.306L41.0559 30.6394C40.4601 31.2352 39.5643 31.4144 38.7851 31.0915Z" fill="#0E6953" style="fill:#0E6953;fill:color(display-p3 0.0549 0.4118 0.3255);fill-opacity:1;"/>
<path d="M49.9997 20.834H27.083C27.083 21.984 28.0163 22.9173 29.1663 22.9173H37.4997V29.1673C37.4997 30.009 38.008 30.7694 38.7851 31.0923C39.0434 31.1986 39.3143 31.2507 39.583 31.2507C40.1247 31.2507 40.658 31.0382 41.0559 30.6402L49.3893 22.3069C49.7955 21.9007 49.9997 21.3673 49.9997 20.834Z" fill="#0E6953" style="fill:#0E6953;fill:color(display-p3 0.0549 0.4118 0.3255);fill-opacity:1;"/>
<path d="M18.0125 4.37924L5.49375 0.206322C2.66875 -0.662428 0 1.42507 0 4.16674V41.6667C0 43.448 1.13542 45.0355 2.82083 45.6209L15.3396 49.7938C15.7979 49.9355 16.2208 50.0001 16.6667 50.0001C18.9646 50.0001 20.8333 48.1313 20.8333 45.8334V8.33341C20.8333 6.55216 19.6979 4.96466 18.0125 4.37924Z" fill="#FFC278" style="fill:#FFC278;fill:color(display-p3 1.0000 0.7623 0.4717);fill-opacity:1;"/>
<path d="M20.8333 25H0V41.6667C0 43.4479 1.13542 45.0354 2.82083 45.6208L15.3396 49.7937C15.7979 49.9354 16.2208 50 16.6667 50C18.9646 50 20.8333 48.1312 20.8333 45.8333V25Z" fill="#FFC278" style="fill:#FFC278;fill:color(display-p3 1.0000 0.7623 0.4717);fill-opacity:1;"/>
</g>
<defs>
<clipPath id="clip0_1_2431">
<rect width="50" height="50" fill="white" style="fill:white;fill-opacity:1;"/>
</clipPath>
</defs>
</svg>
