<svg width="24" height="20" viewBox="0 0 24 20" fill="none" xmlns="http://www.w3.org/2000/svg">
<path d="M0.75 3.87319H12.9615C13.2984 5.23416 14.5295 6.24633 15.9931 6.24633C17.4567 6.24633 18.6878 5.23416 19.0246 3.87319H23.25C23.6642 3.87319 24 3.53737 24 3.12319C24 2.709 23.6642 2.37319 23.25 2.37319H19.0246C18.6878 1.01222 17.4567 0 15.993 0C14.5294 0 13.2983 1.01222 12.9615 2.37319H0.75C0.335812 2.37319 0 2.709 0 3.12319C0 3.53737 0.335812 3.87319 0.75 3.87319ZM15.9931 1.5C16.8881 1.5 17.6163 2.22816 17.6163 3.12314C17.6163 4.01817 16.8881 4.74633 15.9931 4.74633C15.0981 4.74633 14.3699 4.01817 14.3699 3.12314C14.3699 2.22816 15.0981 1.5 15.9931 1.5ZM0.75 10.3601H4.97541C5.31225 11.7211 6.54333 12.7333 8.00695 12.7333C9.47058 12.7333 10.7017 11.7211 11.0385 10.3601H23.25C23.6642 10.3601 24 10.0243 24 9.61012C24 9.19594 23.6642 8.86012 23.25 8.86012H11.0385C10.7016 7.49916 9.47053 6.48694 8.00691 6.48694C6.54328 6.48694 5.3122 7.49916 4.97536 8.86012H0.75C0.335812 8.86012 0 9.19594 0 9.61012C0 10.0243 0.335766 10.3601 0.75 10.3601ZM8.00691 7.98694C8.90194 7.98694 9.63009 8.71509 9.63009 9.61012C9.63009 10.5051 8.90194 11.2333 8.00691 11.2333C7.11187 11.2333 6.38372 10.5051 6.38372 9.61012C6.38372 8.71509 7.11187 7.98694 8.00691 7.98694ZM23.25 15.3471H19.0246C18.6877 13.9861 17.4567 12.9739 15.993 12.9739C14.5294 12.9739 13.2983 13.9861 12.9615 15.3471H0.75C0.335812 15.3471 0 15.6829 0 16.0971C0 16.5112 0.335812 16.8471 0.75 16.8471H12.9615C13.2984 18.208 14.5295 19.2202 15.9931 19.2202C17.4567 19.2202 18.6878 18.208 19.0246 16.8471H23.25C23.6642 16.8471 24 16.5112 24 16.0971C24 15.6829 23.6642 15.3471 23.25 15.3471ZM15.9931 17.7202C15.0981 17.7202 14.3699 16.9921 14.3699 16.0971C14.3699 15.202 15.0981 14.4739 15.9931 14.4739C16.8881 14.4739 17.6163 15.202 17.6163 16.0971C17.6163 16.9921 16.8881 17.7202 15.9931 17.7202Z" fill="#ADADAD" style="fill:#ADADAD;fill:color(display-p3 0.6784 0.6784 0.6784);fill-opacity:1;"/>
</svg>
