<svg width="64" height="64" viewBox="0 0 64 64" fill="none" xmlns="http://www.w3.org/2000/svg">
<rect width="64" height="64" rx="32" fill="white" style="fill:white;fill-opacity:1;"/>
<rect x="1.5" y="1.5" width="61" height="61" rx="30.5" stroke="#0B5442" stroke-opacity="0.06" style="stroke:#0B5442;stroke:color(display-p3 0.0435 0.3286 0.2587);stroke-opacity:0.06;" stroke-width="3"/>
<path d="M36.8545 23.75C38.3484 23.7501 39.7082 24.3472 40.7041 25.4258V25.4248C41.6871 26.4949 42.2499 27.9719 42.25 29.6182V29.6201C42.2538 31.2604 41.6519 32.8024 40.2441 34.4941L40.2422 34.4961C39.8075 35.023 38.5559 36.1513 37.0703 37.4209C35.6101 38.6688 33.9919 39.9975 32.8828 40.8984H32.8818C32.367 41.3182 31.633 41.3182 31.1182 40.8984H31.1172C30.0084 39.9977 28.3913 38.6698 26.9316 37.4219C25.4471 36.1527 24.1944 35.0231 23.7568 34.4951L23.7559 34.4941C22.3522 32.8023 21.75 31.2597 21.75 29.6182C21.7501 27.9744 22.3102 26.4944 23.2959 25.4258L23.2949 25.4248C24.2958 24.3454 25.6568 23.7501 27.1455 23.75C28.2452 23.75 29.2436 24.0953 30.1377 24.7852H30.1387C30.6165 25.1589 31.0379 25.5963 31.3848 26.0879L31.9922 26.9492L32.6064 26.0938C32.9618 25.5994 33.381 25.1578 33.8545 24.7871C34.7471 24.0933 35.7508 23.75 36.8545 23.75Z" stroke="#212121" style="stroke:#212121;stroke:color(display-p3 0.1294 0.1294 0.1294);stroke-opacity:1;" stroke-width="1.5"/>
</svg>
